<svg width="300" height="301" viewBox="0 0 300 301" fill="none" xmlns="http://www.w3.org/2000/svg">
<path d="M150 300C232.843 300 300 232.843 300 150C300 67.1573 232.843 0 150 0C67.1573 0 0 67.1573 0 150C0 232.843 67.1573 300 150 300Z" fill="url(#paint0_linear_58008_24)"/>
<path opacity="0.1" d="M116.308 113.041C115.193 111.38 113.315 110.382 111.304 110.382H54.9433C50.1413 110.382 47.2763 115.694 49.9393 119.661C64.3143 141.077 78.6883 162.493 93.0633 183.909C100.203 194.547 115.948 194.547 123.089 183.91C129.156 174.871 135.224 165.831 141.291 156.792C142.618 154.815 142.618 152.239 141.291 150.262C132.963 137.854 124.636 125.448 116.308 113.041Z" fill="black"/>
<path opacity="0.2" d="M236.618 37.7474C205.809 83.6524 150.961 165.408 150.968 165.419C144.248 175.43 137.528 185.441 130.808 195.453C125.261 203.717 114.654 205.533 106.705 201.148C106.248 201.738 105.769 202.312 105.262 202.864C108.683 207.961 112.105 213.058 115.526 218.155L115.521 218.162C124.821 232.018 134.12 245.873 143.42 259.728C146.99 265.047 154.863 265.047 158.433 259.728C199.307 198.832 240.181 137.936 281.055 77.0404C276.195 68.3294 270.489 60.1634 264.054 52.6324C258.407 46.7184 252.366 41.1774 245.875 36.1684C242.945 33.9084 238.675 34.6814 236.618 37.7474Z" fill="#231F20"/>
<path d="M293.979 28.5943C275.279 28.5863 256.578 28.5793 237.878 28.5713C235.713 28.5703 233.717 29.6053 232.517 31.3933C202.131 76.6663 144.934 161.923 144.942 161.934C138.222 171.945 131.502 181.956 124.782 191.968C117.992 202.084 103.539 202.725 95.7735 193.896C95.7175 193.921 95.6585 193.942 95.6025 193.966C100.235 200.868 104.868 207.769 109.5 214.671L109.495 214.678C118.795 228.534 128.095 242.389 137.394 256.244C140.964 261.563 148.837 261.563 152.407 256.244C201.265 183.454 250.122 110.663 298.98 37.8733C301.643 33.9063 298.78 28.5963 293.979 28.5943Z" fill="url(#paint1_linear_58008_24)"/>
<path d="M110.706 108.434C109.591 106.773 107.713 105.775 105.702 105.775H49.3397C44.5377 105.775 41.6727 111.087 44.3357 115.054C58.7107 136.47 73.0847 157.886 87.4597 179.302C94.5997 189.94 110.345 189.94 117.486 179.303C123.553 170.264 129.621 161.224 135.688 152.185C137.015 150.208 137.015 147.632 135.688 145.655C127.36 133.248 119.033 120.841 110.706 108.434Z" fill="url(#paint2_linear_58008_24)"/>
<defs>
<linearGradient id="paint0_linear_58008_24" x1="27.1167" y1="236.044" x2="269.473" y2="66.3442" gradientUnits="userSpaceOnUse">
<stop offset="0.4764" stop-color="#6C63FF"/>
<stop offset="0.8705" stop-color="#4E4EC4"/>
</linearGradient>
<linearGradient id="paint1_linear_58008_24" x1="-22.5009" y1="324.265" x2="332.23" y2="26.6111" gradientUnits="userSpaceOnUse">
<stop stop-color="#CAF5FF"/>
<stop offset="0.17" stop-color="white"/>
</linearGradient>
<linearGradient id="paint2_linear_58008_24" x1="282.814" y1="406.267" x2="-156.9" y2="-221.711" gradientUnits="userSpaceOnUse">
<stop stop-color="white"/>
<stop offset="0.0001" stop-color="#CAF5FF"/>
<stop offset="0.0002" stop-color="#F7FEFF"/>
<stop offset="0.3802" stop-color="white"/>
</linearGradient>
</defs>
</svg>
