<svg width="265" height="143" viewBox="0 0 265 143" fill="none" xmlns="http://www.w3.org/2000/svg">
<path fill-rule="evenodd" clip-rule="evenodd" d="M192.285 15.9742C205.14 16.3958 215.358 20.5567 225.577 25.2288C259.088 40.5718 266.441 66.2367 243.477 89.6296C207.768 125.906 129.065 146.635 64.5685 135.678C50.2849 133.263 30.3303 132.289 16.1565 120.496C2.97157 109.531 3.52094 96.496 9.56403 84.428C15.717 72.0546 27.5834 60.6667 37.0326 53.3464C78.3454 21.4084 161.081 -7.61902 235.905 7.68398C237.444 7.97883 238.982 7.47177 239.422 6.55148C239.861 5.6312 239.091 4.64439 237.663 4.34954C160.641 -11.3996 75.2685 18.2511 32.7471 51.12C20.9905 60.2479 5.60898 75.485 1.21401 91.2503C-1.7526 102.025 0.334582 113.04 11.7615 122.622C26.8143 135.184 47.3611 137.644 62.5237 140.216C129.108 151.533 215.139 127.096 251.947 89.6296C276.668 64.4865 264.802 38.8755 228.764 22.384C217.776 17.3147 206.568 12.9339 192.614 12.4773C191.076 12.4276 189.758 13.1706 189.758 14.1358C189.648 15.1009 190.857 15.9245 192.285 15.9742Z" fill="#6C63FF"/>
</svg>
