<svg width="1480" height="301" viewBox="0 0 1480 301" fill="none" xmlns="http://www.w3.org/2000/svg">
<g clip-path="url(#clip0_4601_155673)">
<path d="M150 300C232.843 300 300 232.843 300 150C300 67.1573 232.843 0 150 0C67.1573 0 0 67.1573 0 150C0 232.843 67.1573 300 150 300Z" fill="url(#paint0_linear_4601_155673)"/>
<path opacity="0.1" d="M116.308 113.042C115.193 111.381 113.315 110.383 111.304 110.383H54.9433C50.1413 110.383 47.2763 115.695 49.9393 119.662C64.3143 141.078 78.6883 162.494 93.0633 183.91C100.203 194.548 115.948 194.548 123.089 183.911C129.156 174.872 135.224 165.832 141.291 156.793C142.618 154.816 142.618 152.24 141.291 150.263C132.963 137.855 124.636 125.449 116.308 113.042Z" fill="black"/>
<path opacity="0.2" d="M236.618 37.7464C205.809 83.6514 150.961 165.407 150.968 165.418C144.248 175.429 137.528 185.44 130.808 195.452C125.261 203.716 114.654 205.532 106.705 201.147C106.248 201.737 105.769 202.311 105.262 202.863C108.683 207.96 112.105 213.057 115.526 218.154L115.521 218.161C124.821 232.017 134.12 245.872 143.42 259.727C146.99 265.046 154.863 265.046 158.433 259.727C199.307 198.831 240.181 137.935 281.055 77.0394C276.195 68.3284 270.489 60.1624 264.054 52.6314C258.407 46.7174 252.366 41.1764 245.875 36.1674C242.945 33.9074 238.675 34.6804 236.618 37.7464Z" fill="#231F20"/>
<path d="M293.98 28.5933C275.28 28.5853 256.579 28.5783 237.879 28.5703C235.714 28.5693 233.718 29.6043 232.518 31.3923C202.132 76.6653 144.935 161.922 144.943 161.933C138.223 171.944 131.503 181.955 124.783 191.967C117.993 202.083 103.54 202.724 95.7745 193.895C95.7185 193.92 95.6595 193.941 95.6035 193.965C100.236 200.867 104.869 207.768 109.501 214.67L109.496 214.677C118.796 228.533 128.096 242.388 137.395 256.243C140.965 261.562 148.838 261.562 152.408 256.243C201.266 183.453 250.123 110.662 298.981 37.8723C301.644 33.9053 298.781 28.5953 293.98 28.5933Z" fill="url(#paint1_linear_4601_155673)"/>
<path d="M110.706 108.432C109.591 106.771 107.713 105.773 105.702 105.773H49.3397C44.5377 105.773 41.6727 111.085 44.3357 115.052C58.7107 136.468 73.0847 157.884 87.4597 179.3C94.5997 189.938 110.345 189.938 117.486 179.301C123.553 170.262 129.621 161.222 135.688 152.183C137.015 150.206 137.015 147.63 135.688 145.653C127.36 133.246 119.033 120.839 110.706 108.432Z" fill="url(#paint2_linear_4601_155673)"/>
<path opacity="0.1" d="M116.308 113.042C115.193 111.381 113.315 110.383 111.304 110.383H54.9433C50.1413 110.383 47.2763 115.695 49.9393 119.662C64.3143 141.078 78.6883 162.494 93.0633 183.91C100.203 194.548 115.948 194.548 123.089 183.911C129.156 174.872 135.224 165.832 141.291 156.793C142.618 154.816 142.618 152.24 141.291 150.263C132.963 137.855 124.636 125.449 116.308 113.042Z" fill="black"/>
<path opacity="0.2" d="M236.618 37.7464C205.809 83.6514 150.961 165.407 150.968 165.418C144.248 175.429 137.528 185.44 130.808 195.452C125.261 203.716 114.654 205.532 106.705 201.147C106.248 201.737 105.769 202.311 105.262 202.863C108.683 207.96 112.105 213.057 115.526 218.154L115.521 218.161C124.821 232.017 134.12 245.872 143.42 259.727C146.99 265.046 154.863 265.046 158.433 259.727C199.307 198.831 240.181 137.935 281.055 77.0394C276.195 68.3284 270.489 60.1624 264.054 52.6314C258.407 46.7174 252.366 41.1764 245.875 36.1674C242.945 33.9074 238.675 34.6804 236.618 37.7464Z" fill="#231F20"/>
<path d="M293.98 28.5933C275.28 28.5853 256.579 28.5783 237.879 28.5703C235.714 28.5693 233.718 29.6043 232.518 31.3923C202.132 76.6653 144.935 161.922 144.943 161.933C138.223 171.944 131.503 181.955 124.783 191.967C117.993 202.083 103.54 202.724 95.7745 193.895C95.7185 193.92 95.6595 193.941 95.6035 193.965C100.236 200.867 104.869 207.768 109.501 214.67L109.496 214.677C118.796 228.533 128.096 242.388 137.395 256.243C140.965 261.562 148.838 261.562 152.408 256.243C201.266 183.453 250.123 110.662 298.981 37.8723C301.644 33.9053 298.781 28.5953 293.98 28.5933Z" fill="url(#paint3_linear_4601_155673)"/>
<path d="M110.706 108.432C109.591 106.771 107.713 105.773 105.702 105.773H49.3397C44.5377 105.773 41.6727 111.085 44.3357 115.052C58.7107 136.468 73.0847 157.884 87.4597 179.3C94.5997 189.938 110.345 189.938 117.486 179.301C123.553 170.262 129.621 161.222 135.688 152.183C137.015 150.206 137.015 147.63 135.688 145.653C127.36 133.246 119.033 120.839 110.706 108.432Z" fill="url(#paint4_linear_4601_155673)"/>
<path d="M481.046 86.1328L428.846 225.133H402.447L350.047 86.1328H374.447L415.647 201.733L457.046 86.1328H481.046Z" fill="#6C63FF"/>
<path d="M519.643 219.833C511.244 215.102 504.643 208.433 499.843 199.833C495.043 191.233 492.643 181.267 492.643 169.933C492.643 158.733 495.109 148.802 500.043 140.133C504.975 131.467 511.709 124.802 520.243 120.133C528.774 115.467 538.308 113.133 548.843 113.133C559.374 113.133 568.908 115.467 577.444 120.133C585.975 124.802 592.71 131.467 597.643 140.133C602.575 148.802 605.043 158.733 605.043 169.933C605.043 181.133 602.509 191.068 597.443 199.733C592.374 208.401 585.474 215.102 576.743 219.833C568.009 224.567 558.374 226.933 547.843 226.933C537.443 226.933 528.043 224.567 519.643 219.833ZM564.343 202.933C569.475 200.133 573.643 195.933 576.843 190.333C580.043 184.733 581.643 177.933 581.643 169.933C581.643 161.933 580.109 155.167 577.043 149.633C573.975 144.102 569.908 139.933 564.843 137.133C559.775 134.333 554.309 132.933 548.444 132.933C542.575 132.933 537.143 134.333 532.143 137.133C527.143 139.933 523.174 144.102 520.244 149.633C517.309 155.167 515.844 161.933 515.844 169.933C515.844 181.802 518.875 190.968 524.945 197.433C531.01 203.902 538.644 207.133 547.844 207.133C553.709 207.133 559.209 205.733 564.343 202.933Z" fill="#6C63FF"/>
<path d="M654.237 133.535V194.535C654.237 198.669 655.203 201.635 657.137 203.435C659.069 205.235 662.368 206.135 667.037 206.135H681.037V225.135H663.037C652.767 225.135 644.902 222.735 639.436 217.935C633.967 213.135 631.236 205.335 631.236 194.535V133.535H618.236V114.935H631.236V87.5352H654.236V114.935H681.037V133.535H654.237Z" fill="#6C63FF"/>
<path d="M728.638 133.535V194.535C728.638 198.669 729.604 201.635 731.538 203.435C733.47 205.235 736.769 206.135 741.438 206.135H755.438V225.135H737.438C727.168 225.135 719.303 222.735 713.837 217.935C708.368 213.135 705.637 205.335 705.637 194.535V133.535H692.637V114.935H705.637V87.5352H728.637V114.935H755.438V133.535H728.638Z" fill="#6C63FF"/>
<path d="M775.735 140.133C780.336 131.602 786.601 124.967 794.535 120.233C802.467 115.502 811.235 113.133 820.836 113.133C829.501 113.133 837.066 114.833 843.535 118.233C850.001 121.633 855.167 125.867 859.035 130.933V114.933H882.035V225.133H859.035V208.733C855.167 213.933 849.901 218.267 843.235 221.733C836.566 225.198 828.966 226.933 820.435 226.933C810.966 226.933 802.3 224.501 794.435 219.633C786.566 214.767 780.335 207.967 775.735 199.233C771.135 190.502 768.836 180.602 768.836 169.533C768.836 158.467 771.136 148.667 775.735 140.133ZM854.336 150.133C851.201 144.533 847.102 140.267 842.035 137.333C836.967 134.401 831.501 132.933 825.636 132.933C819.767 132.933 814.301 134.368 809.236 137.233C804.168 140.102 800.067 144.302 796.936 149.833C793.801 155.367 792.236 161.933 792.236 169.533C792.236 177.133 793.801 183.802 796.936 189.533C800.067 195.267 804.202 199.633 809.336 202.633C814.467 205.633 819.901 207.133 825.636 207.133C831.501 207.133 836.967 205.667 842.035 202.733C847.101 199.802 851.201 195.502 854.336 189.833C857.467 184.167 859.035 177.533 859.035 169.933C859.035 162.333 857.467 155.733 854.336 150.133Z" fill="#6C63FF"/>
<path d="M1068.73 118.533C1075.6 122.133 1081 127.468 1084.93 134.533C1088.87 141.602 1090.83 150.133 1090.83 160.133V225.133H1068.23V163.533C1068.23 153.667 1065.76 146.102 1060.83 140.833C1055.9 135.567 1049.16 132.933 1040.63 132.933C1032.1 132.933 1025.33 135.568 1020.33 140.833C1015.33 146.102 1012.83 153.667 1012.83 163.533V225.133H990.233V163.533C990.233 153.667 987.764 146.102 982.833 140.833C977.898 135.567 971.164 132.933 962.633 132.933C954.099 132.933 947.333 135.568 942.333 140.833C937.333 146.102 934.833 153.667 934.833 163.533V225.133H912.033V114.933H934.833V127.533C938.564 123.002 943.299 119.468 949.033 116.933C954.764 114.402 960.898 113.133 967.433 113.133C976.233 113.133 984.098 115.002 991.033 118.733C997.965 122.467 1003.3 127.867 1007.03 134.933C1010.36 128.267 1015.56 122.968 1022.63 119.033C1029.7 115.102 1037.3 113.133 1045.43 113.133C1054.1 113.133 1061.87 114.933 1068.73 118.533Z" fill="#6C63FF"/>
<path d="M1220.03 178.533H1135.83C1136.5 187.333 1139.76 194.402 1145.63 199.733C1151.5 205.067 1158.7 207.733 1167.23 207.733C1179.5 207.733 1188.16 202.602 1193.23 192.333H1217.83C1214.5 202.467 1208.46 210.767 1199.73 217.233C1191 223.701 1180.16 226.933 1167.23 226.933C1156.7 226.933 1147.26 224.568 1138.93 219.833C1130.6 215.102 1124.06 208.433 1119.33 199.833C1114.6 191.233 1112.23 181.267 1112.23 169.933C1112.23 158.602 1114.53 148.633 1119.13 140.033C1123.73 131.433 1130.19 124.802 1138.53 120.133C1146.86 115.467 1156.43 113.133 1167.23 113.133C1177.63 113.133 1186.89 115.402 1195.03 119.933C1203.16 124.468 1209.5 130.833 1214.03 139.033C1218.56 147.233 1220.83 156.667 1220.83 167.333C1220.83 171.467 1220.56 175.202 1220.03 178.533ZM1197.03 160.133C1196.9 151.733 1193.9 145.002 1188.03 139.933C1182.16 134.868 1174.9 132.333 1166.23 132.333C1158.36 132.333 1151.63 134.833 1146.03 139.833C1140.43 144.833 1137.1 151.602 1136.03 160.133H1197.03Z" fill="#6C63FF"/>
<path d="M1242.53 140.133C1247.13 131.602 1253.39 124.967 1261.33 120.233C1269.26 115.502 1278.03 113.133 1287.63 113.133C1296.29 113.133 1303.86 114.833 1310.33 118.233C1316.79 121.633 1321.96 125.867 1325.83 130.933V114.933H1348.83V225.133H1325.83V208.733C1321.96 213.933 1316.69 218.267 1310.03 221.733C1303.36 225.198 1295.76 226.933 1287.23 226.933C1277.76 226.933 1269.09 224.501 1261.23 219.633C1253.36 214.767 1247.13 207.967 1242.53 199.233C1237.93 190.502 1235.63 180.602 1235.63 169.533C1235.63 158.467 1237.93 148.667 1242.53 140.133ZM1321.13 150.133C1317.99 144.533 1313.89 140.267 1308.83 137.333C1303.76 134.401 1298.29 132.933 1292.43 132.933C1286.56 132.933 1281.09 134.368 1276.03 137.233C1270.96 140.102 1266.86 144.302 1263.73 149.833C1260.59 155.367 1259.03 161.933 1259.03 169.533C1259.03 177.133 1260.59 183.802 1263.73 189.533C1266.86 195.267 1270.99 199.633 1276.13 202.633C1281.26 205.633 1286.69 207.133 1292.43 207.133C1298.29 207.133 1303.76 205.667 1308.83 202.733C1313.89 199.802 1317.99 195.502 1321.13 189.833C1324.26 184.167 1325.83 177.533 1325.83 169.933C1325.83 162.333 1324.26 155.733 1321.13 150.133Z" fill="#6C63FF"/>
<path d="M1457.73 118.533C1464.59 122.133 1469.96 127.468 1473.83 134.533C1477.69 141.602 1479.63 150.133 1479.63 160.133V225.133H1457.03V163.533C1457.03 153.667 1454.56 146.102 1449.63 140.833C1444.69 135.567 1437.96 132.933 1429.43 132.933C1420.89 132.933 1414.13 135.568 1409.13 140.833C1404.13 146.102 1401.63 153.667 1401.63 163.533V225.133H1378.83V114.933H1401.63V127.533C1405.36 123.002 1410.13 119.468 1415.93 116.933C1421.73 114.402 1427.89 113.133 1434.43 113.133C1443.09 113.133 1450.86 114.933 1457.73 118.533Z" fill="#6C63FF"/>
</g>
<defs>
<linearGradient id="paint0_linear_4601_155673" x1="27.1167" y1="236.044" x2="269.473" y2="66.3442" gradientUnits="userSpaceOnUse">
<stop offset="0.4764" stop-color="#6C63FF"/>
<stop offset="0.8705" stop-color="#4E4EC4"/>
</linearGradient>
<linearGradient id="paint1_linear_4601_155673" x1="-22.4999" y1="324.264" x2="332.231" y2="26.6101" gradientUnits="userSpaceOnUse">
<stop offset="0.5976" stop-color="white"/>
<stop offset="0.766" stop-color="#CAF5FF"/>
</linearGradient>
<linearGradient id="paint2_linear_4601_155673" x1="282.814" y1="406.265" x2="-156.9" y2="-221.713" gradientUnits="userSpaceOnUse">
<stop offset="0.3802" stop-color="white"/>
<stop offset="0.4068" stop-color="#F7FEFF"/>
<stop offset="0.4476" stop-color="#E2F9FF"/>
<stop offset="0.4822" stop-color="#CAF5FF"/>
</linearGradient>
<linearGradient id="paint3_linear_4601_155673" x1="-22.4999" y1="324.264" x2="332.231" y2="26.6101" gradientUnits="userSpaceOnUse">
<stop offset="0.5976" stop-color="white"/>
<stop offset="0.766" stop-color="white"/>
</linearGradient>
<linearGradient id="paint4_linear_4601_155673" x1="282.814" y1="406.265" x2="-156.9" y2="-221.713" gradientUnits="userSpaceOnUse">
<stop offset="0.3802" stop-color="white"/>
<stop offset="0.4068" stop-color="white"/>
<stop offset="0.4476" stop-color="white"/>
<stop offset="0.4822" stop-color="white"/>
</linearGradient>
<clipPath id="clip0_4601_155673">
<rect width="1479.63" height="300.779" fill="white"/>
</clipPath>
</defs>
</svg>
