<?xml version="1.0" encoding="utf-8"?>
<!-- Generator: Adobe Illustrator 27.0.0, SVG Export Plug-In . SVG Version: 6.00 Build 0)  -->
<svg version="1.1" id="Layer_1" xmlns="http://www.w3.org/2000/svg" xmlns:xlink="http://www.w3.org/1999/xlink" x="0px" y="0px"
	 viewBox="0 0 300 300" style="enable-background:new 0 0 300 300;" xml:space="preserve">
<style type="text/css">
	.st0{fill:url(#Circle_Background_00000168835415123524445800000010634100555735952029_);}
	.st1{opacity:0.1;}
	.st2{opacity:0.2;fill:#231F20;}
	.st3{fill:url(#Tick_Body_00000128469643608537995700000006861716275315997364_);}
	.st4{fill:url(#Tick_Head_00000109025604731415878550000009292416439497289885_);}
</style>
<linearGradient id="Circle_Background_00000130633339832766825140000004232840576203152307_" gradientUnits="userSpaceOnUse" x1="27.1167" y1="236.0438" x2="269.4728" y2="66.3442">
	<stop  offset="0.4764" style="stop-color:#6C63FF"/>
	<stop  offset="1" style="stop-color:#242496"/>
</linearGradient>
<circle id="Circle_Background" style="fill:url(#Circle_Background_00000130633339832766825140000004232840576203152307_);" cx="150" cy="150" r="150"/>
<path id="Tick_Head_-_shadow" class="st1" d="M116.308,113.041c-1.115-1.661-2.993-2.659-5.004-2.659H54.943
	c-4.802,0-7.667,5.312-5.004,9.279c14.375,21.416,28.749,42.832,43.124,64.248c7.14,10.638,22.885,10.638,30.026,0.001
	c6.067-9.039,12.135-18.079,18.202-27.118c1.327-1.977,1.327-4.553,0-6.53C132.963,137.854,124.636,125.448,116.308,113.041z"/>
<path class="st2" d="M236.618,37.747c-30.809,45.905-85.657,127.661-85.65,127.672c-6.72,10.011-13.44,20.022-20.16,30.034
	c-5.547,8.264-16.154,10.08-24.103,5.695c-0.457,0.59-0.936,1.164-1.443,1.716c3.421,5.097,6.843,10.194,10.264,15.291l-0.005,0.007
	c9.3,13.856,18.599,27.711,27.899,41.566c3.57,5.319,11.443,5.319,15.013,0c40.874-60.896,81.748-121.792,122.622-182.688
	c-4.86-8.711-10.566-16.877-17.001-24.408c-5.647-5.914-11.688-11.455-18.179-16.464C242.945,33.908,238.675,34.681,236.618,37.747z
	"/>
<linearGradient id="Tick_Body_00000026870968611012922000000015519823405370748856_" gradientUnits="userSpaceOnUse" x1="-22.5004" y1="324.2652" x2="332.2303" y2="26.6108">
	<stop  offset="0.5976" style="stop-color:#FFFFFF"/>
	<stop  offset="0.766" style="stop-color:#CAF5FF"/>
</linearGradient>
<path id="Tick_Body" style="fill:url(#Tick_Body_00000026870968611012922000000015519823405370748856_);" d="M293.979,28.594
	c-18.7-0.008-37.401-0.015-56.101-0.023c-2.165-0.001-4.161,1.034-5.361,2.822c-30.386,45.273-87.583,130.53-87.575,130.541
	c-6.72,10.011-13.44,20.022-20.16,30.034c-6.79,10.116-21.243,10.757-29.008,1.928c-0.056,0.025-0.115,0.046-0.171,0.07
	c4.632,6.902,9.265,13.803,13.897,20.705l-0.005,0.007c9.3,13.856,18.6,27.711,27.899,41.566c3.57,5.319,11.443,5.319,15.013,0
	c48.858-72.79,97.715-145.581,146.573-218.371C301.643,33.906,298.78,28.596,293.979,28.594z"/>
<linearGradient id="Tick_Head_00000176725391077765611980000006108831571620488346_" gradientUnits="userSpaceOnUse" x1="282.8144" y1="406.2663" x2="-156.9001" y2="-221.7111">
	<stop  offset="0.3802" style="stop-color:#FFFFFF"/>
	<stop  offset="0.4068" style="stop-color:#F7FEFF"/>
	<stop  offset="0.4476" style="stop-color:#E2F9FF"/>
	<stop  offset="0.4822" style="stop-color:#CAF5FF"/>
</linearGradient>
<path id="Tick_Head" style="fill:url(#Tick_Head_00000176725391077765611980000006108831571620488346_);" d="M110.706,108.434
	c-1.115-1.661-2.993-2.659-5.004-2.659H49.34c-4.802,0-7.667,5.312-5.004,9.279c14.375,21.416,28.749,42.832,43.124,64.248
	c7.14,10.638,22.885,10.638,30.026,0.001c6.067-9.039,12.135-18.079,18.202-27.118c1.327-1.977,1.327-4.553,0-6.53
	C127.36,133.248,119.033,120.841,110.706,108.434z"/>
<g>
</g>
<g>
</g>
<g>
</g>
<g>
</g>
<g>
</g>
<g>
</g>
</svg>
