<?xml version="1.0" encoding="utf-8"?>
<!-- Generator: Adobe Illustrator 27.0.0, SVG Export Plug-In . SVG Version: 6.00 Build 0)  -->
<svg version="1.1" id="Layer_1" xmlns="http://www.w3.org/2000/svg" xmlns:xlink="http://www.w3.org/1999/xlink" x="0px" y="0px"
	 viewBox="0 0 1479.626 300.779" style="enable-background:new 0 0 1479.626 300.779;" xml:space="preserve">
<style type="text/css">
	.st0{fill:url(#Circle_Background_00000137116583548909177650000003421307835013389501_);}
	.st1{opacity:0.1;}
	.st2{opacity:0.2;fill:#231F20;}
	.st3{fill:url(#Tick_Body_00000024681822052387080780000008321129915889333155_);}
	.st4{fill:url(#Tick_Head_00000099638258076430361250000006479956273673520528_);}
	.st5{fill:none;}
	.st6{fill:#4040BC;}
</style>
<linearGradient id="Circle_Background_00000056421605526526656750000017903090721447902337_" gradientUnits="userSpaceOnUse" x1="27.1167" y1="236.0438" x2="269.4728" y2="66.3442">
	<stop  offset="0.4764" style="stop-color:#6C63FF"/>
	<stop  offset="1" style="stop-color:#242496"/>
</linearGradient>
<circle id="Circle_Background" style="fill:url(#Circle_Background_00000056421605526526656750000017903090721447902337_);" cx="150" cy="150" r="150"/>
<path id="Tick_Head_-_shadow" class="st1" d="M116.308,113.041c-1.115-1.661-2.993-2.659-5.004-2.659H54.943
	c-4.802,0-7.667,5.312-5.004,9.279c14.375,21.416,28.749,42.832,43.124,64.248c7.14,10.638,22.885,10.638,30.026,0.001
	c6.067-9.039,12.135-18.079,18.202-27.118c1.327-1.977,1.327-4.553,0-6.53C132.963,137.854,124.636,125.448,116.308,113.041z"/>
<path class="st2" d="M236.618,37.747c-30.809,45.905-85.657,127.661-85.65,127.672c-6.72,10.011-13.44,20.022-20.16,30.034
	c-5.547,8.264-16.154,10.08-24.103,5.695c-0.457,0.59-0.936,1.164-1.443,1.716c3.421,5.097,6.843,10.194,10.264,15.291l-0.005,0.007
	c9.3,13.856,18.599,27.711,27.899,41.566c3.57,5.319,11.443,5.319,15.013,0c40.874-60.896,81.748-121.792,122.622-182.688
	c-4.86-8.711-10.566-16.877-17.001-24.408c-5.647-5.914-11.688-11.455-18.179-16.464C242.945,33.908,238.675,34.681,236.618,37.747z
	"/>
<linearGradient id="Tick_Body_00000145772092300449809180000000910138364633179287_" gradientUnits="userSpaceOnUse" x1="-22.5004" y1="324.2652" x2="332.2303" y2="26.6108">
	<stop  offset="0.5976" style="stop-color:#FFFFFF"/>
	<stop  offset="0.766" style="stop-color:#CAF5FF"/>
</linearGradient>
<path id="Tick_Body" style="fill:url(#Tick_Body_00000145772092300449809180000000910138364633179287_);" d="M293.979,28.594
	c-18.7-0.008-37.401-0.015-56.101-0.023c-2.165-0.001-4.161,1.034-5.361,2.822c-30.386,45.273-87.583,130.53-87.575,130.541
	c-6.72,10.011-13.44,20.022-20.16,30.034c-6.79,10.116-21.243,10.757-29.008,1.928c-0.056,0.025-0.115,0.046-0.171,0.07
	c4.632,6.902,9.265,13.803,13.897,20.705l-0.005,0.007c9.3,13.856,18.6,27.711,27.899,41.566c3.57,5.319,11.443,5.319,15.013,0
	c48.858-72.79,97.715-145.581,146.573-218.371C301.643,33.906,298.78,28.596,293.979,28.594z"/>
<linearGradient id="Tick_Head_00000057855100450870657060000012015410491446914749_" gradientUnits="userSpaceOnUse" x1="282.8144" y1="406.2663" x2="-156.9001" y2="-221.7111">
	<stop  offset="0.3802" style="stop-color:#FFFFFF"/>
	<stop  offset="0.4068" style="stop-color:#F7FEFF"/>
	<stop  offset="0.4476" style="stop-color:#E2F9FF"/>
	<stop  offset="0.4822" style="stop-color:#CAF5FF"/>
</linearGradient>
<path id="Tick_Head" style="fill:url(#Tick_Head_00000057855100450870657060000012015410491446914749_);" d="M110.706,108.434
	c-1.115-1.661-2.993-2.659-5.004-2.659H49.34c-4.802,0-7.667,5.312-5.004,9.279c14.375,21.416,28.749,42.832,43.124,64.248
	c7.14,10.638,22.885,10.638,30.026,0.001c6.067-9.039,12.135-18.079,18.202-27.118c1.327-1.977,1.327-4.553,0-6.53
	C127.36,133.248,119.033,120.841,110.706,108.434z"/>
<g>
	<rect x="346.246" y="1.488" class="st5" width="1260.653" height="299.291"/>
	<path class="st6" d="M481.045,86.133l-52.2,139h-26.399l-52.4-139h24.4l41.2,115.6l41.399-115.6H481.045z"/>
	<path class="st6" d="M519.642,219.833c-8.399-4.731-15-11.4-19.8-20c-4.8-8.6-7.2-18.566-7.2-29.9c0-11.2,2.466-21.131,7.4-29.8
		c4.932-8.666,11.666-15.331,20.2-20c8.531-4.666,18.065-7,28.6-7c10.531,0,20.065,2.334,28.601,7
		c8.531,4.669,15.266,11.334,20.199,20c4.932,8.669,7.4,18.6,7.4,29.8c0,11.2-2.534,21.135-7.6,29.8
		c-5.069,8.668-11.969,15.369-20.7,20.1c-8.734,4.734-18.369,7.1-28.9,7.1C537.442,226.933,528.042,224.567,519.642,219.833z
		 M564.342,202.933c5.132-2.8,9.3-7,12.5-12.6c3.2-5.6,4.8-12.4,4.8-20.4s-1.534-14.766-4.6-20.3c-3.068-5.531-7.135-9.7-12.2-12.5
		c-5.068-2.8-10.534-4.2-16.399-4.2c-5.869,0-11.301,1.4-16.301,4.2s-8.969,6.969-11.899,12.5c-2.935,5.534-4.4,12.3-4.4,20.3
		c0,11.869,3.031,21.035,9.101,27.5c6.065,6.469,13.699,9.7,22.899,9.7C553.708,207.133,559.208,205.733,564.342,202.933z"/>
	<path class="st6" d="M654.238,133.533v61c0,4.134,0.966,7.1,2.9,8.9c1.932,1.8,5.231,2.7,9.9,2.7h14v19h-18
		c-10.27,0-18.135-2.4-23.601-7.2c-5.469-4.8-8.2-12.6-8.2-23.4v-61h-13v-18.6h13v-27.4h23v27.4h26.801v18.6H654.238z"/>
	<path class="st6" d="M728.637,133.533v61c0,4.134,0.966,7.1,2.9,8.9c1.932,1.8,5.231,2.7,9.9,2.7h14v19h-18
		c-10.27,0-18.135-2.4-23.601-7.2c-5.469-4.8-8.2-12.6-8.2-23.4v-61h-13v-18.6h13v-27.4h23v27.4h26.801v18.6H728.637z"/>
	<path class="st6" d="M775.735,140.133c4.601-8.531,10.866-15.166,18.8-19.9c7.932-4.731,16.7-7.1,26.301-7.1
		c8.665,0,16.23,1.7,22.699,5.1c6.466,3.4,11.632,7.634,15.5,12.7v-16h23v110.2h-23v-16.4c-3.868,5.2-9.134,9.534-15.8,13
		c-6.669,3.465-14.269,5.2-22.8,5.2c-9.469,0-18.135-2.432-26-7.3c-7.869-4.866-14.1-11.666-18.7-20.4
		c-4.6-8.731-6.899-18.631-6.899-29.7C768.836,158.467,771.136,148.667,775.735,140.133z M854.336,150.133
		c-3.135-5.6-7.234-9.866-12.301-12.8c-5.068-2.932-10.534-4.4-16.399-4.4c-5.869,0-11.335,1.435-16.4,4.3
		c-5.068,2.869-9.169,7.069-12.3,12.6c-3.135,5.534-4.7,12.1-4.7,19.7s1.565,14.269,4.7,20c3.131,5.734,7.266,10.1,12.4,13.1
		c5.131,3,10.565,4.5,16.3,4.5c5.865,0,11.331-1.466,16.399-4.4c5.066-2.931,9.166-7.231,12.301-12.9
		c3.131-5.666,4.699-12.3,4.699-19.9C859.035,162.333,857.467,155.733,854.336,150.133z"/>
	<path class="st6" d="M1068.734,118.533c6.865,3.6,12.266,8.935,16.2,16c3.931,7.069,5.899,15.6,5.899,25.6v65h-22.6v-61.6
		c0-9.866-2.469-17.431-7.4-22.7c-4.935-5.266-11.669-7.9-20.2-7.9c-8.534,0-15.3,2.635-20.3,7.9c-5,5.269-7.5,12.834-7.5,22.7v61.6
		h-22.6v-61.6c0-9.866-2.469-17.431-7.4-22.7c-4.935-5.266-11.669-7.9-20.2-7.9c-8.534,0-15.3,2.635-20.3,7.9
		c-5,5.269-7.5,12.834-7.5,22.7v61.6h-22.8v-110.2h22.8v12.6c3.731-4.531,8.466-8.065,14.2-10.6c5.731-2.531,11.865-3.8,18.4-3.8
		c8.8,0,16.665,1.869,23.6,5.6c6.932,3.734,12.266,9.134,16,16.2c3.331-6.666,8.531-11.965,15.6-15.9
		c7.066-3.931,14.666-5.9,22.801-5.9C1054.1,113.133,1061.865,114.933,1068.734,118.533z"/>
	<path class="st6" d="M1220.031,178.533h-84.2c0.666,8.8,3.932,15.869,9.8,21.2c5.866,5.334,13.065,8,21.601,8
		c12.266,0,20.931-5.131,26-15.4h24.6c-3.334,10.134-9.369,18.434-18.1,24.9c-8.734,6.468-19.569,9.7-32.5,9.7
		c-10.535,0-19.969-2.365-28.301-7.1c-8.334-4.731-14.868-11.4-19.6-20c-4.734-8.6-7.1-18.566-7.1-29.9
		c0-11.331,2.3-21.3,6.899-29.9c4.601-8.6,11.065-15.231,19.4-19.9c8.331-4.666,17.899-7,28.7-7c10.399,0,19.665,2.269,27.8,6.8
		c8.131,4.535,14.466,10.9,19,19.1c4.531,8.2,6.8,17.634,6.8,28.3C1220.831,171.467,1220.562,175.202,1220.031,178.533z
		 M1197.031,160.133c-0.135-8.4-3.135-15.131-9-20.2c-5.869-5.065-13.135-7.6-21.8-7.6c-7.869,0-14.601,2.5-20.2,7.5
		c-5.601,5-8.935,11.769-10,20.3H1197.031z"/>
	<path class="st6" d="M1242.528,140.133c4.601-8.531,10.866-15.166,18.8-19.9c7.932-4.731,16.7-7.1,26.301-7.1
		c8.665,0,16.23,1.7,22.699,5.1c6.466,3.4,11.632,7.634,15.5,12.7v-16h23v110.2h-23v-16.4c-3.868,5.2-9.134,9.534-15.8,13
		c-6.669,3.465-14.269,5.2-22.8,5.2c-9.469,0-18.135-2.432-26-7.3c-7.869-4.866-14.1-11.666-18.7-20.4
		c-4.6-8.731-6.899-18.631-6.899-29.7C1235.629,158.467,1237.929,148.667,1242.528,140.133z M1321.129,150.133
		c-3.135-5.6-7.234-9.866-12.301-12.8c-5.068-2.932-10.534-4.4-16.399-4.4c-5.869,0-11.335,1.435-16.4,4.3
		c-5.068,2.869-9.169,7.069-12.3,12.6c-3.135,5.534-4.7,12.1-4.7,19.7s1.565,14.269,4.7,20c3.131,5.734,7.266,10.1,12.4,13.1
		c5.131,3,10.565,4.5,16.3,4.5c5.865,0,11.331-1.466,16.399-4.4c5.066-2.931,9.166-7.231,12.301-12.9
		c3.131-5.666,4.699-12.3,4.699-19.9C1325.828,162.333,1324.26,155.733,1321.129,150.133z"/>
	<path class="st6" d="M1457.728,118.533c6.865,3.6,12.23,8.935,16.1,16c3.865,7.069,5.8,15.6,5.8,25.6v65h-22.6v-61.6
		c0-9.866-2.469-17.431-7.4-22.7c-4.935-5.266-11.669-7.9-20.2-7.9c-8.534,0-15.3,2.635-20.3,7.9c-5,5.269-7.5,12.834-7.5,22.7v61.6
		h-22.8v-110.2h22.8v12.6c3.731-4.531,8.5-8.065,14.3-10.6c5.801-2.531,11.966-3.8,18.5-3.8
		C1443.093,113.133,1450.858,114.933,1457.728,118.533z"/>
</g>
<g>
</g>
<g>
</g>
<g>
</g>
<g>
</g>
<g>
</g>
<g>
</g>
</svg>
