<svg width="80" height="80" viewBox="0 0 80 80" fill="none" xmlns="http://www.w3.org/2000/svg">
<rect width="80" height="80" rx="40" fill="#F9FAFB"/>
<path d="M65.1419 39.6491C65.1419 25.847 53.9511 14.6562 40.148 14.6562C26.3459 14.6562 15.1562 25.8459 15.1562 39.6491C15.1562 47.4003 18.6852 54.3267 24.2215 58.9101C25.6834 60.1203 27.7791 59.6279 28.7684 58.1107L29.5678 56.8851C30.5759 55.3393 30.0912 53.3496 28.8015 52.1814C27.0492 50.5981 25.649 48.6644 24.6917 46.5055C23.7344 44.3466 23.2412 42.0107 23.2443 39.6491C23.2443 30.3122 30.8122 22.7443 40.1491 22.7443C49.4859 22.7443 57.055 30.3122 57.055 39.6491C57.055 44.217 55.2441 48.3609 52.2993 51.404C51.2789 50.264 50.2144 49.1641 49.1083 48.107C48.4369 47.471 47.5735 47.2965 46.8171 47.5505C46.0641 47.8044 45.4789 48.4636 45.3099 49.3668C44.6894 52.7069 44.4211 56.555 44.3118 59.6996C44.2789 60.6229 44.5893 61.5255 45.1832 62.2332C45.7771 62.9409 46.6122 63.4033 47.5271 63.5311C50.6276 63.9672 54.4381 64.3703 57.8212 64.3426C58.751 64.3349 59.5084 63.8634 59.8905 63.1579C60.2736 62.4501 60.2515 61.5579 59.7359 60.7795C59.023 59.7103 58.2747 58.6652 57.4922 57.6459C59.9148 55.3168 61.8414 52.5219 63.156 49.4291C64.4706 46.3363 65.1461 43.0096 65.1419 39.6491Z" fill="#8FBFFA"/>
<path fill-rule="evenodd" clip-rule="evenodd" d="M39.9991 26.8008C40.7312 26.8008 41.4333 27.0916 41.951 27.6093C42.4686 28.127 42.7595 28.8291 42.7595 29.5612V39.4987C42.7595 39.8612 42.6882 40.2202 42.5495 40.5552C42.4108 40.8901 42.2075 41.1945 41.9512 41.4509L35.3262 48.0759C34.8085 48.5936 34.1063 48.8845 33.3741 48.8845C32.6419 48.8845 31.9396 48.5936 31.4219 48.0759C30.9041 47.5581 30.6133 46.8559 30.6133 46.1237C30.6133 45.7611 30.6847 45.4021 30.8234 45.0672C30.9622 44.7322 31.1655 44.4279 31.4219 44.1715L37.2386 38.3559V29.5612C37.2386 28.8291 37.5295 28.127 38.0472 27.6093C38.5648 27.0916 39.267 26.8008 39.9991 26.8008Z" fill="#2859C5"/>
</svg>
