<svg width="80" height="80" viewBox="0 0 80 80" fill="none" xmlns="http://www.w3.org/2000/svg">
<rect width="80" height="80" rx="40" fill="#F9FAFB"/>
<path fill-rule="evenodd" clip-rule="evenodd" d="M18.2285 30.9062C18.6844 30.9062 19.1215 31.0873 19.4439 31.4097C19.7662 31.732 19.9473 32.1692 19.9473 32.625V54.3958C19.9473 54.8517 19.7662 55.2888 19.4439 55.6112C19.1215 55.9335 18.6844 56.1146 18.2285 56.1146C17.7727 56.1146 17.3355 55.9335 17.0132 55.6112C16.6908 55.2888 16.5098 54.8517 16.5098 54.3958V32.625C16.5098 32.1692 16.6908 31.732 17.0132 31.4097C17.3355 31.0873 17.7727 30.9062 18.2285 30.9062Z" fill="#2859C5"/>
<path d="M23.5408 34.3516C23.4329 36.1293 23.3809 37.9101 23.385 39.6911C23.385 43.2914 23.5695 45.5956 23.762 47.0245C23.9888 48.7157 24.9754 50.2007 26.5314 51.0154C28.7853 52.1956 33.1441 53.8227 39.9996 53.8227C46.8551 53.8227 51.2138 52.1956 53.4677 51.0154C55.0237 50.2019 56.0092 48.7157 56.2372 47.0245C56.4297 45.5956 56.6142 43.2914 56.6142 39.6911C56.6182 37.9101 56.5662 36.1293 56.4583 34.3516C55.8167 34.6243 55.1441 34.9084 54.4371 35.2029C48.3412 37.7421 44.1773 39.2477 41.9418 40.0108C40.6829 40.4421 39.3163 40.4421 38.0574 40.0108C35.823 39.2477 31.6568 37.7421 25.5621 35.2029C24.8872 34.9217 24.2135 34.6379 23.5408 34.3516Z" fill="#8FBFFA"/>
<path d="M23.5408 34.3516V34.3539C23.4329 36.1305 23.381 37.9101 23.385 39.69V39.9398C27.6629 41.7381 32.0013 43.3891 36.3925 44.8898C38.7307 45.6893 41.2684 45.6893 43.6066 44.8898C47.9978 43.3891 52.3362 41.7381 56.6141 39.9398V39.69C56.6141 37.5656 56.55 35.7942 56.4583 34.3539V34.3516C55.8166 34.6243 55.144 34.9084 54.4371 35.2029C48.3412 37.7421 44.1773 39.2477 41.9418 40.0108C40.6829 40.4421 39.3163 40.4421 38.0574 40.0108C35.823 39.2477 31.6568 37.7421 25.5621 35.2029C24.8872 34.9217 24.2135 34.6379 23.5408 34.3516Z" fill="#2859C5"/>
<path d="M18.2285 52.6758C18.9056 52.6758 19.5761 52.8092 20.2017 53.0683C20.8273 53.3274 21.3957 53.7072 21.8745 54.186C22.3533 54.6648 22.7331 55.2332 22.9923 55.8588C23.2514 56.4844 23.3848 57.1549 23.3848 57.832C23.3848 58.5092 23.2514 59.1797 22.9923 59.8052C22.7331 60.4308 22.3533 60.9992 21.8745 61.4781C21.3957 61.9569 20.8273 62.3367 20.2017 62.5958C19.5761 62.8549 18.9056 62.9883 18.2285 62.9883C16.861 62.9883 15.5495 62.445 14.5825 61.4781C13.6155 60.5111 13.0723 59.1996 13.0723 57.832C13.0723 56.4645 13.6155 55.153 14.5825 54.186C15.5495 53.219 16.861 52.6758 18.2285 52.6758Z" fill="#8FBFFA"/>
<path d="M42.4973 16.7361C40.8782 16.1817 39.1206 16.1817 37.5015 16.7361C35.2304 17.5118 31.0298 19.0312 24.9008 21.5841C20.4893 23.4232 17.36 24.8463 15.2528 25.8558C13.8801 26.5135 13.0918 27.8094 13.0918 29.1867C13.0918 30.564 13.8801 31.8599 15.2551 32.5176C17.3612 33.526 20.4904 34.9503 24.903 36.7893C31.031 39.3422 35.2316 40.8616 37.5038 41.6362C39.1222 42.19 40.8789 42.19 42.4973 41.6362C44.7695 40.8616 48.9713 39.3422 55.0992 36.7893C59.5107 34.9503 62.6399 33.5271 64.7471 32.5176C66.121 31.8599 66.9093 30.564 66.9093 29.1867C66.9093 27.8094 66.121 26.5135 64.746 25.8558C62.6399 24.8463 59.5107 23.4232 55.0992 21.5841C48.9701 19.0312 44.7695 17.5118 42.4973 16.7372V16.7361Z" fill="#8FBFFA"/>
</svg>
