<svg width="80" height="80" viewBox="0 0 80 80" fill="none" xmlns="http://www.w3.org/2000/svg">
<rect width="80" height="80" rx="40" fill="#F9FAFB"/>
<path d="M46.5473 16.7315C42.7452 16.5134 36.2582 16.2871 29.8625 16.7543C27.739 16.91 25.8981 18.2823 25.1426 20.273C21.9177 28.7493 20.3811 36.5674 19.726 40.71C19.3159 43.3088 21.2044 45.6262 23.8022 45.8037C26.022 45.9564 29.2831 46.1152 33.0894 46.0945C32.6845 49.3889 32.2619 53.7848 31.8414 58.5131C31.4666 62.7492 36.5603 65.296 39.592 62.0473C47.3758 53.707 54.5118 44.4322 58.424 39.1464C60.5773 36.2393 58.6814 32.1714 55.005 32.0759C52.9323 32.0238 50.859 32.0075 48.7858 32.0271C49.5095 28.8729 50.1636 25.4456 50.7647 22.1377C51.2527 19.4517 49.3288 16.8913 46.5473 16.7315Z" fill="#8FBFFA"/>
</svg>
