<svg width="80" height="80" viewBox="0 0 80 80" fill="none" xmlns="http://www.w3.org/2000/svg">
<rect width="80" height="80" rx="40" fill="#F9FAFB"/>
<path d="M31.5 17.5C27.0563 17.5 23.8904 17.6614 21.84 17.8221C19.4001 18.0132 17.5132 19.9001 17.322 22.34C17.1614 24.3904 17 27.5563 17 32C17 36.4437 17.1614 39.6096 17.3221 41.66C17.5132 44.0999 19.4001 45.9868 21.84 46.1779C23.8904 46.3386 27.0563 46.5 31.5 46.5C35.9437 46.5 39.1096 46.3386 41.16 46.1779C43.5999 45.9868 45.4868 44.0999 45.6779 41.66C45.8386 39.6096 46 36.4437 46 32C46 27.5563 45.8386 24.3904 45.6779 22.34C45.4868 19.9001 43.5999 18.0132 41.16 17.822C39.1096 17.6614 35.9437 17.5 31.5 17.5Z" fill="#8FBFFA"/>
<path d="M39.5 49.5C30.0469 49.5 24.231 49.6084 21.4391 49.6793C19.7559 49.722 17.8278 50.6472 17.3419 52.7461C17.1459 53.5929 17 54.6706 17 56C17 57.3294 17.1459 58.4072 17.3419 59.2539C17.8278 61.3529 19.7559 62.278 21.4391 62.3207C24.231 62.3916 30.0469 62.5 39.5 62.5C48.9531 62.5 54.769 62.3916 57.5609 62.3207C59.244 62.278 61.1722 61.3529 61.6581 59.2539C61.8541 58.4071 62 57.3294 62 56C62 54.6706 61.8541 53.5929 61.6581 52.7461C61.1722 50.6471 59.244 49.722 57.5609 49.6793C54.769 49.6084 48.9531 49.5 39.5 49.5Z" fill="#8FBFFA"/>
<path d="M55.5 33.5C54.7575 33.5 54.1052 33.5116 53.5379 33.5298C51.0391 33.6102 49.1101 35.5391 49.0298 38.0379C49.0116 38.6052 49 39.2576 49 40C49 40.7425 49.0116 41.3948 49.0298 41.9621C49.1101 44.4609 51.0391 46.3899 53.5379 46.4702C54.1052 46.4884 54.7575 46.5 55.5 46.5C56.2424 46.5 56.8948 46.4884 57.4621 46.4702C59.9609 46.3899 61.8898 44.4609 61.9702 41.9621C61.9884 41.3948 62 40.7425 62 40C62 39.2576 61.9884 38.6052 61.9702 38.0379C61.8898 35.5391 59.9609 33.6102 57.4621 33.5298C56.8948 33.5116 56.2424 33.5 55.5 33.5Z" fill="#2859C5"/>
<path d="M55.5 17.5C54.7575 17.5 54.1052 17.5116 53.5379 17.5298C51.0391 17.6102 49.1101 19.5391 49.0298 22.0379C49.0116 22.6052 49 23.2576 49 24C49 24.7424 49.0116 25.3948 49.0298 25.9621C49.1101 28.4609 51.0391 30.3899 53.5379 30.4702C54.1052 30.4884 54.7575 30.5 55.5 30.5C56.2424 30.5 56.8948 30.4884 57.4621 30.4702C59.9609 30.3899 61.8898 28.4609 61.9702 25.9621C61.9884 25.3948 62 24.7424 62 24C62 23.2576 61.9884 22.6052 61.9702 22.0379C61.8898 19.5391 59.9609 17.6102 57.4621 17.5298C56.8948 17.5116 56.2424 17.5 55.5 17.5Z" fill="#2859C5"/>
</svg>
