<svg transform="scale(1)" version="1.1" id="_x30_092_x5F_Workflow_x5F_3" xmlns="http://www.w3.org/2000/svg" xmlns:xlink="http://www.w3.org/1999/xlink" x="0px" y="0px" width="500px" height="500px" viewBox="0 0 500 500" xml:space="preserve" class="show_show__wrapper__graphic__5Waiy "><title>React</title><style type="text/css">
	.st0{fill:#6C63FF;}
	.st1{fill:#FFFFFF;}
	.st2{fill:#000001;}
	.st3{fill:#6C63FF;}
	.st4{fill:#F3C623;}
</style><g id="icons"><g id="icon-1"><g id="colors"><path class="st0" d="M166.7,357.31l13.82,75.6l40.41-8.86c0,0,0,5.87-0.51,6.65c-4.5,0.34-8.64,3.54-10.1,7.81
				c-0.42,1.24-0.63,2.6-0.3,3.87c0.66,2.49,3.17,3.96,5.45,5.17c0,0,43.39-10.59,43.54-10.65c-2.34-3.73-6.36-6.16-10.57-7.46
				c-4.21-1.3-8.66-1.58-13.05-1.85l-0.25-7.05l38.19-9.25l-14.08-69.48L166.7,357.31z"></path><polygon class="st1" points="172.05,361.35 184.69,426.52 268.63,406.97 255.08,346.88 			"></polygon><path class="st2" d="M220.64,431.77l0.15,2.82l14.33-4.27c0,0-24.97,12.38-25.1,12.25c-0.65-2.95,0.53-6.13,2.63-8.31
				C214.75,432.09,217.65,430.81,220.64,431.77z"></path><polygon class="st2" points="234.65,420.73 221.27,423.77 221.07,426.89 			"></polygon></g><g id="line"><path class="st3" d="M177.01,369.28c-0.23,0-0.44-0.16-0.49-0.39c-0.06-0.27,0.11-0.54,0.38-0.6
				c24.04-5.28,48.59-10.07,72.97-14.22c0.27-0.04,0.53,0.14,0.58,0.41s-0.14,0.53-0.41,0.58c-24.37,4.15-48.91,8.93-72.93,14.21
				C177.08,369.28,177.04,369.28,177.01,369.28z"></path><path class="st3" d="M181.73,379.89c-0.23,0-0.43-0.15-0.49-0.38c-0.06-0.27,0.1-0.54,0.37-0.6l12.88-3.08
				c5.75-1.38,11.5-2.75,17.25-4.13c0.27-0.06,0.54,0.1,0.6,0.37s-0.1,0.54-0.37,0.6c-5.75,1.37-11.5,2.75-17.25,4.13l-12.88,3.08
				C181.81,379.89,181.77,379.89,181.73,379.89z"></path><path class="st3" d="M182.16,389.96c-0.21,0-0.41-0.14-0.48-0.35c-0.08-0.26,0.06-0.54,0.33-0.63
				c9.88-3.14,20.07-5.61,30.29-7.35c0.27-0.05,0.53,0.14,0.58,0.41c0.05,0.27-0.14,0.53-0.41,0.58
				c-10.17,1.73-20.31,4.19-30.15,7.31C182.26,389.96,182.21,389.96,182.16,389.96z"></path><path class="st3" d="M185.54,397.74c-0.22,0-0.42-0.14-0.48-0.37c-0.07-0.27,0.08-0.54,0.35-0.62l30.46-8.45
				c0.27-0.08,0.54,0.08,0.62,0.35c0.07,0.27-0.08,0.54-0.35,0.62l-30.46,8.45C185.63,397.74,185.58,397.74,185.54,397.74z"></path><path class="st3" d="M233.41,386.93c-0.03,0-0.05,0-0.08-0.01c-0.27-0.04-0.46-0.3-0.42-0.57l2.36-14.9
				c0.03-0.2,0.19-0.37,0.39-0.41c0.2-0.05,0.41,0.04,0.52,0.21c0.93,1.41,1.87,2.82,2.8,4.23l2.07,3.12
				c0.5-1.99,1.06-4.01,1.65-6.01c0.08-0.23,0.22-0.66,0.66-0.79c0.42-0.1,0.76,0.14,0.9,0.23l3.9,2.85
				c0.03-0.17,0.04-0.35,0.06-0.54c0.02-0.29,0.05-0.6,0.13-0.91c0.17-0.63,0.78-1.18,1.41-1.27c0.09-0.01,0.18-0.02,0.26-0.01
				c0.36-2.35,0.72-4.7,1.12-7.06c0.04-0.23,0.24-0.41,0.48-0.42c0.27-0.01,0.45,0.15,0.5,0.38c0.35,1.45,0.84,2.85,1.46,4.17
				c0.12,0.25,0.01,0.55-0.24,0.67c-0.25,0.12-0.55,0.01-0.67-0.24c-0.34-0.72-0.64-1.46-0.9-2.23c-0.29,1.78-0.56,3.56-0.83,5.33
				l-0.04,0.23c-0.03,0.21-0.19,0.37-0.4,0.42c-0.21,0.04-0.42-0.05-0.53-0.23c-0.29,0.01-0.6,0.25-0.67,0.52
				c-0.06,0.22-0.08,0.46-0.1,0.73c-0.04,0.49-0.08,1.05-0.43,1.53c-0.08,0.11-0.2,0.18-0.33,0.2c-0.13,0.02-0.27-0.01-0.38-0.09
				l-4.41-3.22c0,0,0,0,0,0c-0.01,0.02-0.01,0.04-0.02,0.05c-0.7,2.34-1.34,4.71-1.91,7.05c-0.05,0.19-0.2,0.34-0.4,0.37
				c-0.2,0.04-0.39-0.05-0.5-0.22l-2.7-4.07c-0.7-1.05-1.4-2.11-2.09-3.16l-2.16,13.63C233.86,386.76,233.65,386.93,233.41,386.93z"></path><path class="st3" d="M188,413.57c-0.22,0-0.41-0.14-0.48-0.36c-0.08-0.26,0.07-0.54,0.34-0.62c23.78-7.07,48.48-12.07,72.36-16.9
				c0.27-0.05,0.54,0.12,0.59,0.39c0.05,0.27-0.12,0.54-0.39,0.59c-23.86,4.83-48.54,9.82-72.28,16.88
				C188.1,413.57,188.05,413.57,188,413.57z"></path><path class="st3" d="M210.75,414.84c-0.22,0-0.42-0.14-0.48-0.36c-0.08-0.27,0.08-0.54,0.34-0.62
				c11.13-3.16,22.27-6.32,33.4-9.47c0.26-0.07,0.54,0.08,0.62,0.35c0.08,0.27-0.08,0.54-0.34,0.62
				c-11.13,3.15-22.27,6.31-33.4,9.47C210.84,414.84,210.79,414.84,210.75,414.84z"></path><path class="st3" d="M230.4,394.35c-0.25,0-0.46-0.18-0.5-0.43l-3.94-28.98c-0.04-0.27,0.15-0.52,0.42-0.56l27.63-4.29
				c0.27-0.04,0.52,0.14,0.57,0.41l5.37,29.67c0.02,0.13-0.01,0.27-0.09,0.38c-0.08,0.11-0.2,0.18-0.34,0.2l-29.06,3.6
				C230.44,394.35,230.42,394.35,230.4,394.35z M227.02,365.29l3.81,28l28.05-3.48l-5.19-28.67L227.02,365.29z"></path></g></g><g id="icon-2"><g id="colors_1_"><path class="st4" d="M117.71,295.57c-8.42,6.51-20.93,34.02-17.19,60.68l-44.08-10.56c0,0-0.67-9.41-1.23-9.18
				c1.1-5.11,4.49-9.36,7.99-13.18c11.7-12.79,25.66-23.24,40.3-32.33l0.8,2L117.71,295.57z"></path><path class="st3" d="M49.42,336.45c0.04-24.71,10.94-49.2,29.28-65.76c0,0,42.75,10.08,42.99,10.51
				c0.97,0.53,1.65,1.48,2.04,2.52c0.38,1.03,0.5,2.15,0.54,3.25c0.11,2.36-0.06,4.74-0.49,7.06c0,0-14.51-2.56-14.88-2.09
				c-2.08,2.54-3.64,5.47-5.19,8.37c-4,7.53-7.98,15.12-10.7,23.2s-4.15,16.74-2.9,25.18L49.42,336.45z"></path></g><g id="lu"><path class="st2" d="M103.83,283.8c-0.06,0-0.12-0.01-0.18-0.03c-4.11-1.58-8.57-2.02-12.91-1.29c-0.81,0.13-2.16,0.35-2.92-0.59
				c-0.31-0.39-0.41-0.85-0.49-1.25c-0.06-0.3-0.12-0.58-0.26-0.78c-0.27-0.41-0.9-0.56-1.98-0.48c-2.77,0.23-5.51,0.75-8.16,1.56
				c-0.27,0.08-0.54-0.07-0.62-0.33c-0.08-0.26,0.07-0.54,0.33-0.62c2.72-0.83,5.54-1.37,8.37-1.6c0.93-0.08,2.24-0.06,2.89,0.92
				c0.24,0.36,0.33,0.77,0.4,1.14c0.07,0.32,0.13,0.63,0.29,0.83c0.36,0.45,1.18,0.36,1.98,0.23c4.51-0.76,9.16-0.29,13.43,1.35
				c0.26,0.1,0.39,0.39,0.29,0.65C104.22,283.68,104.03,283.8,103.83,283.8z"></path><path class="st2" d="M90.74,351.09c-0.05,0-0.11-0.01-0.16-0.03l-34.02-11.66c-0.26-0.09-0.4-0.37-0.31-0.63s0.37-0.4,0.64-0.31
				l33.27,11.4c-1.08-9.72,0.14-20.28,3.52-30.59c3.04-9.25,7.93-18.7,14.54-28.09c2.76-3.92,5.91-7.77,10.29-9.42
				c0.26-0.1,0.55,0.03,0.64,0.29c0.1,0.26-0.03,0.55-0.29,0.64c-4.33,1.63-7.35,5.53-9.83,9.06c-6.55,9.31-11.39,18.67-14.4,27.83
				c-3.43,10.45-4.61,21.15-3.39,30.94c0.02,0.17-0.05,0.34-0.18,0.45C90.96,351.06,90.85,351.09,90.74,351.09z"></path><path class="st2" d="M97.54,294.18c-1.18,0-2.31-0.51-3.41-1c-0.75-0.33-1.52-0.68-2.27-0.85c-0.92-0.2-1.89-0.16-2.91-0.11
				c-1.43,0.06-2.9,0.13-4.25-0.52c-0.7-0.34-1.22-0.82-1.5-1.38c-0.09-0.19-0.16-0.38-0.23-0.58c-0.07-0.21-0.13-0.4-0.23-0.55
				c-0.38-0.6-1.32-0.71-2.1-0.75c-3.61-0.16-7.23,0.17-10.77,0.99c-0.27,0.06-0.54-0.11-0.6-0.38c-0.06-0.27,0.11-0.54,0.38-0.6
				c3.63-0.83,7.34-1.17,11.03-1.01c1.02,0.04,2.27,0.22,2.9,1.21c0.16,0.26,0.25,0.53,0.33,0.78c0.05,0.15,0.1,0.31,0.17,0.45
				c0.23,0.46,0.69,0.76,1.04,0.93c1.12,0.54,2.4,0.48,3.76,0.42c1.04-0.05,2.13-0.1,3.17,0.13c0.85,0.19,1.67,0.56,2.47,0.91
				c1.36,0.61,2.65,1.19,3.9,0.77c0.26-0.09,0.55,0.05,0.63,0.32c0.09,0.26-0.05,0.54-0.32,0.63
				C98.34,294.12,97.94,294.18,97.54,294.18z"></path><path class="st2" d="M86.59,310.2c-1.56,0-3.12-0.49-4.4-1.42c-1.7-1.22-2.85-3.24-3.05-5.33c-1.12-0.33-2.4-0.12-3.54,0.06
				l-9.91,1.62c-0.27,0.05-0.53-0.14-0.57-0.41c-0.04-0.27,0.14-0.53,0.41-0.57l9.91-1.62c1.3-0.21,2.92-0.47,4.36,0.1
				c0.18,0.07,0.3,0.25,0.31,0.44c0.09,1.91,1.11,3.79,2.66,4.91c1.55,1.12,3.65,1.51,5.5,1c0.26-0.07,0.54,0.08,0.61,0.35
				c0.07,0.27-0.08,0.54-0.35,0.62C87.91,310.11,87.25,310.2,86.59,310.2z"></path><path class="st2" d="M84.48,320.57c-1.24,0-2.48-0.03-3.72-0.08c-0.93-0.03-1.91-0.12-2.69-0.71c-0.67-0.5-1-1.23-1.33-1.94
				c-0.28-0.61-0.54-1.19-1-1.54c-0.86-0.67-2.2-0.39-3.4-0.04c-2.79,0.83-5.58,1.8-8.3,2.89c-0.26,0.1-0.55-0.02-0.65-0.28
				s0.02-0.55,0.28-0.65c2.74-1.09,5.56-2.07,8.38-2.92c1.44-0.43,3.08-0.74,4.3,0.2c0.65,0.5,0.98,1.22,1.29,1.92
				c0.28,0.62,0.55,1.21,1.02,1.56c0.55,0.42,1.35,0.48,2.13,0.51c2.44,0.1,4.91,0.1,7.35,0c0.26-0.01,0.51,0.2,0.52,0.48
				c0.01,0.28-0.2,0.51-0.48,0.52C86.96,320.54,85.72,320.57,84.48,320.57z"></path><path class="st2" d="M72.95,331.39c-0.05,0-0.09,0-0.14,0c-2.06-0.04-3.88-0.97-4.76-2.43c-0.15-0.26-0.29-0.54-0.42-0.82
				c-0.28-0.6-0.54-1.17-1.02-1.38c-0.4-0.18-0.94-0.1-1.47-0.02c-2.71,0.41-5.38,0.31-8.01-0.28c-0.27-0.06-0.44-0.33-0.38-0.6
				c0.06-0.27,0.33-0.43,0.6-0.38c2.51,0.57,5.05,0.65,7.57,0.27c0.71-0.11,1.43-0.21,2.1,0.09c0.81,0.37,1.19,1.17,1.52,1.87
				c0.12,0.25,0.23,0.5,0.37,0.73c0.84,1.4,2.58,1.92,3.92,1.95c1.67,0.05,3.31-0.53,4.78-1.02c0.26-0.09,0.55,0.05,0.63,0.31
				s-0.05,0.54-0.31,0.63C76.42,330.81,74.72,331.39,72.95,331.39z"></path></g></g><g id="icon-3"><g id="colors_2_"><path class="st4" d="M124.08,86.78c-0.42,3.64-0.1,7.36,0.94,10.87c0.73,2.48,1.83,4.87,3.46,6.87c2.23,2.74,5.39,4.64,8.76,5.68
				c3.38,1.03,6.97,1.22,10.49,0.91c0,0,22.29,0.8,22.58,1.07c3.95,10.12,4.36,21.58,1.15,31.96c0,0-19.14,0.45-19.26,0.58
				c-4.3,5.96-11.53,9.3-18.82,10.24c-7.28,0.94-14.68-0.27-21.83-1.92c-2.9-0.67-5.86-1.45-8.22-3.26s-3.96-4.91-3.12-7.8
				c-0.87-0.43-1.76-0.87-2.38-1.62c-0.47-0.56-0.75-1.25-0.95-1.95c-0.38-1.31-0.51-2.7-0.23-4.03c0.27-1.33,0.97-2.59,2.46-3.75
				c-2.82-2.47-3.02-7.06-1.19-10.33c1.83-3.27,5.23-5.39,8.74-6.7c3.39-1.26,7.03-1.91,10.62-1.53
				c-4.74-6.65-5.02-15.76-2.27-23.45c0.57-1.59,1.28-3.17,2.49-4.34s3.02-1.85,4.62-1.32C123.71,83.47,124.26,85.27,124.08,86.78z"></path><path class="st0" d="M100.91,120.9c0.94,1.26,2.7,1.53,4.27,1.65c3.1,0.24,6.21,0.31,9.32,0.2c2.03-0.07,4.26-0.15,5.84,1.12
				c1.23,0.99,1.79,2.65,1.72,4.22c-0.07,1.57-0.68,3.08-1.46,4.45c1.93,0.98,3.31,2.96,3.57,5.11s-0.62,4.4-2.27,5.8
				c2.16,2.21,2.54,5.95,0.86,8.55c1.42-2.3,1.83-5.05,2.38-7.69c0.56-2.64,1.37-5.39,3.34-7.24c-3.64-3.28-3.68-8.98-6.3-13.12
				c-0.37-0.59-0.81-1.15-1.37-1.56c-1.25-0.9-2.9-0.92-4.44-0.89c-1.93,0.03-3.86,0.06-5.79,0.08c-1.03,0.01-2.09,0.03-3.08-0.29
				s-1.91-1.02-2.2-2.01c-0.01,0.92-0.82,1.68-1.72,1.88C102.69,121.37,101.75,121.11,100.91,120.9z"></path></g><g id="line_1_"><path class="st2" d="M144.84,138.21c-0.06,0-0.13-0.01-0.19-0.04c-4.1-1.66-8.12-3.74-11.92-6.17c-3.23-2.07-5.6-3.99-7.47-6.02
				c-2.38-2.59-3.99-5.5-4.68-8.43c-0.06-0.27,0.1-0.54,0.37-0.6c0.27-0.06,0.54,0.1,0.6,0.37c0.65,2.76,2.18,5.53,4.44,7.99
				c1.81,1.97,4.12,3.83,7.27,5.86c3.75,2.4,7.71,4.45,11.76,6.09c0.26,0.1,0.38,0.4,0.28,0.65
				C145.22,138.1,145.04,138.21,144.84,138.21z"></path><path class="st2" d="M131.79,140.54c-0.05,0-0.1-0.01-0.15-0.02c-0.26-0.08-0.41-0.36-0.33-0.63c0.82-2.65,2.94-4.91,5.54-5.9
				c0.26-0.1,0.55,0.03,0.65,0.29c0.1,0.26-0.03,0.55-0.29,0.65c-2.32,0.88-4.21,2.9-4.94,5.26
				C132.2,140.41,132,140.54,131.79,140.54z"></path><path class="st2" d="M152.95,143.26c-0.04,0-0.08,0-0.12-0.01c-0.27-0.06-0.43-0.34-0.37-0.6c1.31-5.37,1.67-10.88,1.1-16.36
				c-0.03-0.27,0.17-0.52,0.44-0.55c0.27-0.03,0.52,0.17,0.55,0.44c0.59,5.6,0.21,11.22-1.12,16.7
				C153.38,143.11,153.18,143.26,152.95,143.26z"></path><path class="st2" d="M158.28,144.27c-0.13,0-0.26-0.05-0.36-0.15c-2.47-2.56-3.15-6.6-1.65-9.84c0.12-0.25,0.41-0.36,0.66-0.24
				c0.25,0.12,0.36,0.41,0.24,0.66c-1.31,2.82-0.69,6.49,1.47,8.72c0.19,0.2,0.19,0.52-0.01,0.71
				C158.53,144.23,158.4,144.27,158.28,144.27z"></path><path class="st2" d="M111.11,134.56c-0.56,0-1.12-0.01-1.68-0.05c-3.29-0.18-6.12-0.97-8.4-2.34c-0.24-0.14-0.31-0.45-0.17-0.69
				c0.14-0.24,0.45-0.31,0.69-0.17c2.14,1.28,4.81,2.02,7.94,2.2c2.83,0.16,5.69-0.14,8.47-0.44c0.28-0.03,0.52,0.17,0.55,0.44
				c0.03,0.27-0.17,0.52-0.44,0.55C115.79,134.31,113.45,134.56,111.11,134.56z"></path><path class="st2" d="M112.8,145.56c-3.69,0-7.38-0.87-10.67-2.58c-0.25-0.13-0.34-0.43-0.21-0.67c0.13-0.25,0.43-0.34,0.67-0.21
				c4.99,2.59,10.94,3.17,16.33,1.6c0.26-0.08,0.54,0.08,0.62,0.34s-0.08,0.54-0.34,0.62C117.12,145.26,114.96,145.56,112.8,145.56z
				"></path><path class="st2" d="M119.07,152.74c-0.08,0-0.17-0.02-0.25-0.07c-1.5-0.86-2.43-2.67-2.25-4.4c0.03-0.27,0.27-0.46,0.55-0.45
				c0.27,0.03,0.47,0.27,0.45,0.55c-0.14,1.35,0.58,2.76,1.75,3.44c0.24,0.14,0.32,0.44,0.18,0.68
				C119.41,152.65,119.24,152.74,119.07,152.74z"></path><path class="st2" d="M115.29,140.85c-0.16,0-0.32-0.08-0.42-0.23c-0.89-1.38-1.22-3.09-0.9-4.71c0.05-0.27,0.31-0.45,0.59-0.39
				c0.27,0.05,0.45,0.32,0.39,0.59c-0.27,1.36,0.01,2.81,0.76,3.97c0.15,0.23,0.08,0.54-0.15,0.69
				C115.48,140.83,115.38,140.85,115.29,140.85z"></path><path class="st2" d="M115.08,130.99c-0.15,0-0.29-0.06-0.39-0.19c-1.33-1.65-1.56-4.12-0.56-5.99c0.13-0.24,0.43-0.33,0.68-0.21
				c0.24,0.13,0.34,0.43,0.21,0.68c-0.82,1.53-0.63,3.54,0.46,4.89c0.17,0.21,0.14,0.53-0.08,0.7
				C115.3,130.96,115.19,130.99,115.08,130.99z"></path><path class="st2" d="M122.92,93.47c-0.11,0-0.22-0.04-0.31-0.11c-0.98-0.78-1.4-2.13-1.24-4.02c0.13-1.58,0.5-3.13,1.09-4.6
				c0.1-0.26,0.39-0.38,0.65-0.28c0.26,0.1,0.38,0.39,0.28,0.65c-0.55,1.38-0.9,2.83-1.03,4.32c-0.13,1.54,0.16,2.6,0.86,3.16
				c0.22,0.17,0.25,0.49,0.08,0.7C123.21,93.41,123.07,93.47,122.92,93.47z"></path></g></g><g id="icon-4"><g id="colors_3_"><path class="st3" d="M278.39,96.87c-2.36-0.48-5.27-0.77-6.74,1.13c-0.94,1.23-0.99,3.09-2.23,4.01c-0.97,0.72-2.4,0.64-3.25,1.5
				c-1.11,1.13-0.52,3.13-1.36,4.47c-0.57,0.91-1.66,1.32-2.49,2.01c-1.92,1.59-2.18,4.48-1.58,6.89c1.24,4.97,5.39,8.8,10.06,10.92
				c1.84,0.83,3.83,1.46,5.84,1.3s4.04-1.23,4.91-3.05c0.42-0.87,0.58-1.9,1.23-2.62c1.1-1.2,3.18-1.06,4.26-2.28
				c0.94-1.07,0.84-2.88,2.01-3.69c0.47-0.33,1.07-0.41,1.62-0.58c3.03-0.94,4.53-5.07,2.81-7.74c-0.6-0.93-1.49-1.65-2.35-2.34
				C287.21,103.68,284.38,98.1,278.39,96.87z"></path><path class="st4" d="M276.97,97.07c3.41-5.17,6.87-10.43,8.67-16.36c1.56-5.13,1.84-10.65,4.06-15.54
				c3.54-7.81,12.1-12.97,20.67-12.72s16.71,5.73,20.43,13.46s2.97,17.35-1.64,24.58c-1.68,2.63-3.88,5-6.63,6.47
				c-2.87,1.53-6.17,2-9.33,2.79c-7.04,1.75-13.66,5.2-19.23,9.95c-1.42,0.81-3.17,0.88-4.77,0.53c-1.6-0.36-3.07-1.12-4.5-1.91
				c-2.13-1.19-4.25-2.5-5.83-4.36S275.53,99.26,276.97,97.07z"></path></g><g id="line_2_"><path class="st0" d="M288.57,105.4c-0.1,0-0.21-0.03-0.29-0.1c-0.22-0.17-0.27-0.46-0.1-0.68c5.02-6.43,10.19-13.03,14.64-19.93
				c0.41-0.64,0.82-1.28,1.23-1.92c0.44-0.7,0.89-1.4,1.34-2.1c-1.69,0.31-3.42,0.42-5.17,0.27c-0.46-0.04-0.9-0.1-1.31-0.18
				c-1.04,2.21-2.46,4.49-4.25,6.88c-3.81,5.05-8.27,9.57-12.58,13.93c-0.19,0.2-0.51,0.2-0.71,0c-0.2-0.19-0.2-0.51,0-0.71
				c4.29-4.34,8.73-8.83,12.5-13.83c1.71-2.27,3.06-4.45,4.07-6.54c-1.19-0.4-2.08-1.03-2.64-1.9c-0.8-1.22-0.79-2.76-0.71-3.82
				c0.14-1.91,0.61-3.77,1.39-5.53c0.38-0.85,1.13-1.9,2.1-2.26c0.5-0.19,1.02-0.17,1.49,0.05c1.1,0.51,1.32,1.94,1.39,2.41
				c0.49,3.28-0.04,6.71-1.62,10.38c0.3,0.05,0.63,0.09,0.97,0.12c1.99,0.16,3.95-0.02,5.87-0.46c1.15-1.72,2.37-3.4,3.74-4.95
				c3.18-3.59,6.79-5.9,10.46-6.7c1.44-0.31,3.04,0.04,3.33,1.34c0.08,0.38,0.02,0.81-0.18,1.29c-0.55,1.31-1.76,2.16-2.73,2.84
				c-4.17,2.9-8.92,5.81-14.01,7.05c-0.65,0.98-1.27,1.96-1.89,2.93c-0.41,0.64-0.82,1.29-1.23,1.93
				C299.18,92.18,294,98.8,289,105.2C288.9,105.33,288.73,105.4,288.57,105.4z M298.77,67.86c-0.11,0-0.23,0.02-0.34,0.07
				c-0.64,0.24-1.23,1.04-1.54,1.73c-0.73,1.66-1.17,3.41-1.31,5.21c-0.07,0.91-0.08,2.23,0.55,3.2c0.45,0.7,1.19,1.21,2.22,1.53
				c1.55-3.55,2.09-6.86,1.62-9.99c-0.14-0.92-0.41-1.46-0.83-1.65C299.02,67.89,298.89,67.86,298.77,67.86z M321.35,68.74
				c-0.27,0-0.54,0.03-0.77,0.08c-3.46,0.75-6.89,2.96-9.92,6.38c-1.08,1.22-2.08,2.54-3.02,3.9c4.53-1.34,8.79-3.97,12.58-6.6
				c1.1-0.77,1.97-1.44,2.37-2.4c0.12-0.29,0.16-0.52,0.12-0.7C322.61,68.92,321.98,68.74,321.35,68.74z"></path><path class="st0" d="M283.74,114.28c-0.05,0-0.1-0.01-0.16-0.02c-4.79-1.57-8.73-5.32-10.54-10.01c-0.1-0.26,0.03-0.55,0.29-0.65
				c0.26-0.1,0.55,0.03,0.65,0.29c1.71,4.42,5.42,7.94,9.92,9.42c0.26,0.09,0.41,0.37,0.32,0.63
				C284.15,114.15,283.95,114.28,283.74,114.28z"></path><path class="st0" d="M278.4,118.37c-0.08,0-0.16-0.02-0.24-0.06c-3.89-2.1-7.14-5.41-9.16-9.32c-0.13-0.25-0.03-0.55,0.21-0.67
				c0.25-0.13,0.55-0.03,0.67,0.22c1.93,3.74,5.03,6.9,8.74,8.9c0.24,0.13,0.33,0.43,0.2,0.68
				C278.75,118.28,278.58,118.37,278.4,118.37z"></path><path class="st0" d="M275.53,123.04c-0.06,0-0.12-0.01-0.18-0.03c-3.96-1.54-7.37-4.36-9.6-7.95c-0.15-0.23-0.07-0.54,0.16-0.69
				c0.24-0.14,0.54-0.07,0.69,0.16c2.12,3.41,5.36,6.09,9.12,7.55c0.26,0.1,0.39,0.39,0.29,0.65
				C275.92,122.92,275.73,123.04,275.53,123.04z"></path></g></g><g id="icon-5"><g id="colors_4_"><rect class="st4" x="381.58" y="202.31" width="11.25" height="34.5"></rect><rect class="st4" x="411.08" y="186.81" width="11.25" height="50"></rect><rect class="st4" x="439.33" y="170.81" width="11.25" height="66"></rect><path class="st0" d="M372.51,187.37c-0.31,0.35-0.62,0.69-0.93,1.04c0,0-13.83,15.5-13.73,15.71c-0.22,0.73,0.01,1.58,0.58,2.09
				c0.57,0.51,1.44,0.64,2.14,0.33c0,0,14.89-16.33,14.94-16.33C374.44,189.39,373.41,188.5,372.51,187.37z"></path><circle class="st3" cx="382.08" cy="178.34" r="15"></circle><path class="st1" d="M373.21,172.68c-0.5-0.37-0.58-1.12-0.33-1.69s0.74-0.99,1.25-1.35c2.59-1.84,5.85-2.62,9.02-2.43
				c1.05,0.06,2.3,0.39,2.63,1.4c0.3,0.92-0.43,1.91-1.32,2.28s-1.89,0.3-2.86,0.27c-1.71-0.05-3.47,0.06-5.07,0.68
				c-0.91,0.35-1.76,0.87-2.7,1.14C373.63,173.04,373.3,172.92,373.21,172.68z"></path><path class="st1" d="M388.62,168.94c-0.74,0.52-0.86,1.71-0.29,2.42c0.57,0.71,1.68,0.87,2.47,0.42c0.32-0.18,0.6-0.46,0.71-0.81
				c0.21-0.62-0.15-1.32-0.69-1.69C390.15,168.83,389.13,168.58,388.62,168.94z"></path></g><g id="line_3_"><path class="st2" d="M381.95,190.68c-3.44,0-6.79-1.31-9.13-3.67c-3.04-3.05-4.14-7.88-2.68-11.75c0.1-0.26,0.38-0.39,0.64-0.29
				c0.26,0.1,0.39,0.39,0.29,0.64c-1.33,3.51-0.32,7.91,2.46,10.69c2.68,2.7,6.81,3.91,10.76,3.15c3.29-0.63,6.23-2.6,7.88-5.28
				c1.81-2.94,2.06-6.88,0.63-10.02c-0.11-0.25,0-0.55,0.25-0.66c0.25-0.11,0.55,0,0.66,0.25c1.59,3.49,1.32,7.69-0.69,10.96
				c-1.79,2.91-4.98,5.06-8.54,5.74C383.64,190.61,382.79,190.68,381.95,190.68z"></path><path class="st2" d="M450.55,237.59h-68.67c-0.28,0-0.5-0.22-0.5-0.5s0.22-0.5,0.5-0.5h68.67c0.28,0,0.5,0.22,0.5,0.5
				S450.83,237.59,450.55,237.59z"></path><path class="st2" d="M386.31,195.92c-0.18,0-0.36-0.1-0.45-0.28c-0.12-0.25-0.02-0.55,0.23-0.67c6.56-3.24,13-6.5,19.14-9.71
				l37.93-22.64c0.23-0.14,0.54-0.07,0.69,0.17c0.14,0.24,0.06,0.54-0.17,0.69l-37.95,22.65c-6.17,3.22-12.62,6.49-19.18,9.73
				C386.46,195.91,386.38,195.92,386.31,195.92z"></path><path class="st2" d="M369.43,195.56c-0.12,0-0.24-0.04-0.33-0.13c-0.58-0.52-1.15-1.03-1.73-1.54c-0.21-0.18-0.23-0.5-0.05-0.71
				c0.18-0.21,0.5-0.23,0.71-0.05c0.58,0.51,1.15,1.02,1.73,1.54c0.21,0.18,0.22,0.5,0.04,0.71
				C369.7,195.51,369.57,195.56,369.43,195.56z"></path><path class="st2" d="M367.54,197.45c-0.11,0-0.22-0.04-0.31-0.11l-1.62-1.3c-0.22-0.17-0.25-0.49-0.08-0.7s0.49-0.25,0.7-0.08
				l1.62,1.3c0.22,0.17,0.25,0.49,0.08,0.7C367.83,197.39,367.69,197.45,367.54,197.45z"></path><path class="st2" d="M366.29,199.28c-0.11,0-0.22-0.03-0.31-0.11c-0.6-0.47-1.21-0.94-1.82-1.41c-0.22-0.17-0.26-0.48-0.09-0.7
				c0.17-0.22,0.48-0.26,0.7-0.09c0.61,0.47,1.22,0.94,1.82,1.41c0.22,0.17,0.25,0.48,0.08,0.7
				C366.58,199.22,366.44,199.28,366.29,199.28z"></path><path class="st2" d="M364.55,201.22c-0.14,0-0.27-0.06-0.37-0.17c-0.46-0.51-1-0.97-1.6-1.36c-0.23-0.15-0.3-0.46-0.15-0.69
				c0.15-0.23,0.46-0.3,0.69-0.15c0.68,0.44,1.28,0.96,1.8,1.54c0.18,0.21,0.17,0.52-0.04,0.71
				C364.79,201.18,364.67,201.22,364.55,201.22z"></path></g></g><g id="icon-6"><g id="colors_5_"><path class="st3" d="M361.01,325.7l15.93,44.57c0.17,0.47,0.65,0.75,1.15,0.67l38.43-6.69l9.01-15.45l-8.77-24.62
				c-1.93-5.41-7.5-8.62-13.15-7.58l-41.82,7.74C361.17,324.46,360.8,325.1,361.01,325.7z"></path><polygon class="st0" points="360.61,324.56 363.77,333.4 416.51,323.45 413.42,314.78 			"></polygon><polygon class="st0" points="425.55,348.84 412.15,351.12 416.51,364.25 			"></polygon><circle class="st4" cx="421.49" cy="329.46" r="8"></circle></g><g id="line_4_"><path class="st0" d="M368.43,328.28c-1.12,0-2.22-0.52-3.15-1.51c-1.02-1.09-1.72-2.61-1.95-4.3c-0.24-1.69,0.01-3.35,0.69-4.67
				c0.71-1.38,1.82-2.24,3.11-2.42l0,0c2.6-0.36,5.11,2.23,5.61,5.78c0.24,1.69-0.01,3.35-0.69,4.67c-0.71,1.38-1.82,2.24-3.11,2.42
				C368.76,328.27,368.6,328.28,368.43,328.28z M367.26,316.36c-0.96,0.13-1.8,0.81-2.36,1.89c-0.59,1.14-0.8,2.59-0.59,4.08
				c0.21,1.49,0.81,2.82,1.69,3.76c0.84,0.89,1.83,1.3,2.79,1.17c0.96-0.13,1.8-0.81,2.36-1.89c0.59-1.14,0.8-2.59,0.59-4.08
				C371.32,318.28,369.3,316.08,367.26,316.36L367.26,316.36z"></path><path class="st0" d="M387.68,324.03c-1.12,0-2.22-0.52-3.15-1.51c-1.02-1.08-1.72-2.61-1.95-4.3c-0.24-1.69,0.01-3.35,0.69-4.67
				c0.71-1.38,1.82-2.24,3.11-2.42c1.29-0.18,2.59,0.34,3.65,1.48c1.02,1.08,1.72,2.61,1.95,4.3c0.24,1.69-0.01,3.35-0.69,4.67
				c-0.71,1.38-1.82,2.24-3.11,2.42C388.01,324.02,387.85,324.03,387.68,324.03z M386.87,312.09c-0.12,0-0.24,0.01-0.36,0.02
				c-0.96,0.13-1.8,0.81-2.36,1.89c-0.59,1.14-0.8,2.59-0.59,4.08c0.21,1.49,0.81,2.82,1.69,3.75c0.84,0.89,1.83,1.31,2.79,1.17
				c0.96-0.13,1.8-0.81,2.36-1.89c0.59-1.14,0.8-2.59,0.59-4.08c-0.21-1.49-0.81-2.82-1.69-3.75
				C388.57,312.5,387.72,312.09,386.87,312.09z"></path><path class="st0" d="M405.89,321.47c-1.12,0-2.22-0.52-3.15-1.51c-1.02-1.08-1.72-2.61-1.95-4.3c-0.5-3.55,1.21-6.73,3.8-7.1l0,0
				c2.61-0.36,5.11,2.23,5.61,5.78c0.5,3.55-1.21,6.73-3.8,7.1C406.22,321.46,406.06,321.47,405.89,321.47z M404.72,309.55
				c-2.05,0.29-3.37,2.96-2.95,5.97c0.21,1.49,0.81,2.82,1.69,3.75c0.84,0.89,1.83,1.31,2.79,1.17c2.05-0.29,3.37-2.96,2.95-5.97
				C408.78,311.47,406.77,309.27,404.72,309.55L404.72,309.55z"></path><path class="st0" d="M363.13,372.25c-0.26,0-0.49-0.21-0.5-0.47l-2.39-46.96c-0.01-0.26,0.18-0.49,0.43-0.52
				c0.28-0.04,0.5,0.14,0.55,0.39l9.77,46.7c0.06,0.27-0.12,0.54-0.39,0.59c-0.27,0.06-0.54-0.12-0.59-0.39l-8.45-40.41l2.06,40.54
				c0.01,0.28-0.2,0.51-0.47,0.52C363.15,372.25,363.14,372.25,363.13,372.25z"></path><path class="st0" d="M420.72,333.66c-0.02,0-0.05,0-0.07,0c-0.27-0.04-0.46-0.29-0.42-0.57l1.17-8.09
				c0.04-0.27,0.3-0.46,0.57-0.42c0.27,0.04,0.46,0.29,0.42,0.57l-1.17,8.09C421.18,333.48,420.96,333.66,420.72,333.66z"></path><path class="st0" d="M417.81,331.52c-0.18,0-0.36-0.1-0.45-0.28c-0.12-0.25-0.02-0.55,0.23-0.67c2.51-1.24,5.13-2.43,7.8-3.53
				c0.25-0.11,0.55,0.01,0.65,0.27c0.11,0.25-0.02,0.55-0.27,0.65c-2.65,1.1-5.25,2.28-7.74,3.51
				C417.96,331.51,417.88,331.52,417.81,331.52z"></path><path class="st0" d="M424.32,332.76c-0.14,0-0.29-0.06-0.38-0.18l-5.47-6.61c-0.18-0.21-0.15-0.53,0.07-0.7
				c0.21-0.18,0.53-0.15,0.7,0.07l5.47,6.61c0.18,0.21,0.15,0.53-0.07,0.7C424.55,332.73,424.43,332.76,424.32,332.76z"></path></g></g></g><g id="line_5_"><path class="st0" d="M88.42,259.9c-0.49,0-0.92-0.37-0.99-0.87c-0.68-5.22-0.78-10.44-0.32-16.44c0.44-4.16,1.42-8.24,3.17-13.27
		c0.02-0.06,0.05-0.11,0.08-0.17c3.27-5.7,6.65-11.59,7.85-18.11c1.34-7.25-0.14-14.8-1.58-22.1c-0.34-1.7-0.67-3.41-0.97-5.1
		c-1.39-7.79-2.54-19.13,3.45-27.67c0.32-0.45,0.94-0.56,1.39-0.24c0.45,0.32,0.56,0.94,0.24,1.39c-4.23,6.04-5.22,14.35-3.11,26.17
		c0.3,1.68,0.63,3.37,0.96,5.06c1.47,7.48,3,15.22,1.58,22.85c-1.26,6.82-4.85,13.11-8.04,18.66c-1.68,4.84-2.62,8.76-3.04,12.71
		c-0.45,5.82-0.36,10.91,0.31,16c0.07,0.55-0.31,1.05-0.86,1.12C88.51,259.9,88.46,259.9,88.42,259.9z"></path><path class="st0" d="M161.85,100.94c-0.36,0-0.71-0.2-0.89-0.54c-0.25-0.49-0.06-1.09,0.43-1.35c16.97-8.77,32.75-14,48.23-15.99
		c18.14-2.34,35.48,0.03,50.14,6.83c0.5,0.23,0.72,0.83,0.49,1.33c-0.23,0.5-0.83,0.72-1.33,0.49c-14.32-6.65-31.27-8.95-49.04-6.67
		c-15.25,1.96-30.81,7.13-47.57,15.79C162.16,100.91,162.01,100.94,161.85,100.94z"></path><path class="st0" d="M400.91,163.94c-0.39,0-0.77-0.23-0.93-0.62c-6.25-15.26-17.3-26.41-30.32-30.6
		c-5.2-1.67-10.79-2.26-16.2-2.83c-4.96-0.52-10.09-1.06-15-2.43c-9.99-2.79-18.83-8.95-24.89-17.36c-0.32-0.45-0.22-1.07,0.23-1.4
		c0.45-0.32,1.07-0.22,1.4,0.23c5.8,8.04,14.25,13.94,23.81,16.6c4.75,1.32,9.79,1.85,14.67,2.37c5.51,0.58,11.21,1.18,16.6,2.92
		c13.58,4.37,25.09,15.94,31.56,31.74c0.21,0.51-0.04,1.09-0.55,1.3C401.17,163.92,401.04,163.94,400.91,163.94z"></path><path class="st0" d="M403.58,298.83c-0.36,0-0.7-0.19-0.88-0.53c-9.15-17.04-8.91-38.92,0.62-55.75c0.27-0.48,0.88-0.65,1.36-0.38
		c0.48,0.27,0.65,0.88,0.38,1.36c-9.2,16.24-9.44,37.37-0.6,53.81c0.26,0.49,0.08,1.09-0.41,1.35
		C403.9,298.8,403.74,298.83,403.58,298.83z"></path><path class="st0" d="M288.01,406.79c-0.35,0-0.68-0.18-0.87-0.5c-0.28-0.48-0.11-1.09,0.37-1.37c9.47-5.43,20.64-5.07,31.44-4.73
		c4.57,0.15,9.3,0.3,13.82,0c16.87-1.1,33.04-8.93,44.36-21.49c0.37-0.41,1-0.44,1.41-0.07c0.41,0.37,0.44,1,0.07,1.41
		c-11.67,12.94-28.34,21.02-45.72,22.15c-4.61,0.3-9.39,0.15-14.01,0c-11.01-0.36-21.41-0.69-30.38,4.46
		C288.35,406.75,288.18,406.79,288.01,406.79z"></path><path class="st0" d="M168.17,411.66c-0.06,0-0.13-0.01-0.19-0.02c-27.98-5.4-52.4-26.18-62.22-52.93
		c-0.19-0.52,0.08-1.09,0.59-1.28c0.52-0.19,1.09,0.08,1.28,0.59c9.58,26.11,33.42,46.38,60.72,51.65c0.54,0.1,0.9,0.63,0.79,1.17
		C169.06,411.33,168.64,411.66,168.17,411.66z"></path></g></svg>