<svg transform="scale(1)" version="1.1" id="_x30_019_x5F_Checklist_x5F_1" xmlns="http://www.w3.org/2000/svg" xmlns:xlink="http://www.w3.org/1999/xlink" x="0px" y="0px" width="500px" height="500px" viewBox="0 0 500 500" xml:space="preserve" class="show_show__wrapper__graphic__5Waiy "><title>React</title><style type="text/css">
	.st0{fill:#6C63FF;}
	.st1{fill:#000001;}
	.st2{fill:#FFFFFF;}
	.st3{fill:#FFDC32;}
	.st4{fill:#6C63FF;}
</style><g id="back"><path class="st0" d="M190.26,374.55l41.6-194.48c1.44-6.75,8.09-11.05,14.84-9.61l155.64,33.29c6.75,1.44,11.05,8.09,9.61,14.84
		l-41.6,194.48c-1.44,6.75-8.09,11.05-14.84,9.61l-155.64-33.29C193.12,387.94,188.82,381.3,190.26,374.55z"></path><path class="st1" d="M195.63,383.98c12.88,3.24,25.81,6.49,39.01,8c5.42,0.62,10.91,0.95,16.17,2.43c4.5,1.27,8.79,3.36,13.42,4
		c7.32,1.01,14.68-1.71,22.06-1.37c11.63,0.53,21.75,8.5,33.29,10.07c8.45,1.15,17.11-1.21,25.53,0.11
		c6.56,1.03,13.81,4.14,19.38,0.51c3.33-2.17,4.93-6.26,5.35-10.21c0.42-3.95-0.13-7.93-0.1-11.9c0.07-7.74,2.38-15.25,4.28-22.75
		c4.3-16.97,6.59-34.46,6.81-51.97c0.03-2.24,0.1-4.69,1.55-6.39c0.62-0.73,1.45-1.25,2.27-1.76c3.7-2.32,7.4-4.64,11.1-6.96
		l2.36-12.74c0,0-14.37,11.92-14.9,11.76c0.96-4.85,1.92-9.71,2.44-14.63c0.37-3.51,0.5-7.06,1.17-10.53
		c0.62-3.24,1.69-6.39,2.18-9.66c0.57-3.84,0.31-7.77,0.87-11.62c0.4-2.77,1.23-5.45,1.91-8.17c2.38-9.38,3.16-19.17,2.04-28.76
		c-0.36-2.51-0.46-5.06-0.31-7.6c0,0-27.07,191.97-27.08,192.28c-1.36,4.4-5.04,8.01-9.46,9.29c-1.9,0.55-3.99,0.67-5.83-0.05
		L195.63,383.98z"></path></g><g id="paper"><path class="st2" d="M184.03,369.63l27.69-196.95c0.96-6.84,7.28-11.6,14.12-10.64l157.61,22.16c6.84,0.96,11.6,7.28,10.64,14.12
		L366.4,395.27c-0.96,6.84-7.28,11.6-14.12,10.64l-157.61-22.16C187.83,382.79,183.07,376.47,184.03,369.63z"></path><path class="st0" d="M336.96,215.73c-0.01,0-0.03,0-0.04,0c-0.24-0.02-0.43-0.21-0.46-0.45c-0.24-2.45-0.19-4.93,0.12-7.39
		c-0.91,0.92-2.17,1.6-3.6,1.93c-2.21,0.5-4.53,0.16-6.58-0.14c-1.24-0.18-2.78-0.41-3.85-1.46c-0.17-0.17-0.33-0.36-0.49-0.55
		c-0.23-0.28-0.44-0.53-0.7-0.69c-0.56-0.36-1.36-0.26-2.13-0.17c-3.97,0.5-8.04,0.71-12.1,0.64c-0.94-0.02-1.91-0.09-2.69-0.66
		c-0.62-0.45-0.96-1.1-1.28-1.72c-0.1-0.19-0.2-0.38-0.31-0.57c-2.44-4.2-8.83-3.74-12.42-3.1l-0.19,0.03
		c-4.79,0.86-10.23,1.84-13.93-1.42c-0.28-0.25-0.54-0.52-0.8-0.79c-0.4-0.41-0.78-0.8-1.22-1.11c-1.68-1.17-3.79-0.94-6.04-0.7
		c-1.3,0.14-2.65,0.28-3.95,0.15c-0.27-0.03-0.47-0.27-0.45-0.55c0.03-0.27,0.28-0.47,0.55-0.45c1.19,0.13,2.49-0.01,3.74-0.15
		c2.33-0.25,4.73-0.5,6.71,0.87c0.52,0.36,0.95,0.8,1.37,1.23c0.24,0.25,0.49,0.5,0.75,0.73c3.34,2.94,8.52,2.01,13.09,1.19
		l0.19-0.03c3.85-0.69,10.72-1.14,13.46,3.58c0.12,0.2,0.22,0.41,0.33,0.61c0.28,0.55,0.55,1.06,0.98,1.37
		c0.54,0.4,1.31,0.45,2.12,0.47c4.01,0.07,8.03-0.14,11.96-0.64c0.9-0.11,1.92-0.23,2.78,0.31c0.39,0.24,0.67,0.58,0.94,0.91
		c0.13,0.16,0.26,0.32,0.41,0.47c0.77,0.76,1.95,0.98,3.29,1.18c2.06,0.3,4.19,0.61,6.22,0.16c2.15-0.48,3.83-1.9,4.28-3.62
		c0.07-0.26,0.33-0.42,0.6-0.36c0.26,0.06,0.43,0.33,0.37,0.59c-0.55,2.57-0.78,5.17-0.69,7.77c0.66-0.99,1.61-1.83,2.76-2.41
		c1.82-0.92,3.86-1.06,5.6-0.38c0.26,0.1,0.38,0.39,0.28,0.65c-0.1,0.26-0.4,0.38-0.65,0.28c-1.47-0.58-3.21-0.46-4.78,0.34
		c-1.57,0.8-2.7,2.13-3.1,3.65C337.39,215.57,337.19,215.73,336.96,215.73z"></path><path class="st0" d="M336.86,233.15c-0.08,0-0.15-0.02-0.23-0.05c-2.83-1.44-6.11-1.88-9.23-1.23c-0.63,0.14-1.39,0.3-2.03-0.12
		c-1.04-0.68-0.71-1.86-0.44-2.82c0.17-0.59,0.34-1.21,0.24-1.68c-0.18-0.82-1.29-1.2-2.17-1.03c-0.76,0.15-1.46,0.56-2.19,1
		c-0.25,0.15-0.49,0.29-0.74,0.43c-4.19,2.28-9.7,1.99-16.38-0.87l-0.67-0.29c-1.77-0.77-3.61-1.57-5.49-1.63
		c-1.66-0.05-3.22,0.44-4.89,0.96c-1.34,0.42-2.73,0.85-4.17,0.98c-1.88,0.18-3.73-0.19-5.53-0.54c-5.18-1.03-10.32-2.04-15.46-3.05
		c-0.27-0.05-0.45-0.32-0.39-0.59c0.05-0.27,0.31-0.45,0.59-0.39c5.14,1.01,10.28,2.02,15.42,3.04c1.77,0.35,3.55,0.69,5.29,0.53
		c1.33-0.12,2.67-0.54,3.96-0.94c1.67-0.52,3.41-1.07,5.22-1.01c2.08,0.07,4,0.9,5.86,1.71l0.66,0.29c6.38,2.73,11.6,3.04,15.5,0.91
		c0.24-0.13,0.47-0.27,0.71-0.41c0.77-0.46,1.57-0.94,2.51-1.12c1.36-0.27,3.02,0.39,3.33,1.79c0.16,0.72-0.06,1.5-0.25,2.18
		c-0.28,0.99-0.37,1.46,0.02,1.7c0.3,0.19,0.78,0.09,1.25-0.01c3.38-0.7,6.89-0.24,9.92,1.31c0.25,0.13,0.34,0.43,0.22,0.67
		C337.22,233.05,337.04,233.15,336.86,233.15z"></path><path class="st0" d="M329.71,263.89c-0.06,0-0.13-0.01-0.19-0.04c-0.19-0.08-0.32-0.27-0.31-0.48c0.06-2.19,0.54-4.35,1.4-6.36
		c-1.36,0.78-3.01,1.2-4.64,1.56c-2.96,0.65-6.31,1.39-9.6,0.99c-1.51-0.18-2.99-0.6-4.42-1c-1.3-0.37-2.64-0.75-3.97-0.94
		c-0.89-0.13-1.82-0.17-2.72-0.22c-1.59-0.08-3.24-0.17-4.8-0.68c-1.18-0.39-2.25-1-3.29-1.59c-0.49-0.28-0.99-0.56-1.49-0.82
		c-5.45-2.79-11.96-2.72-17.7-2.67c-0.27,0.04-0.5-0.22-0.5-0.49c0-0.28,0.22-0.5,0.5-0.5c5.85-0.06,12.49-0.12,18.16,2.77
		c0.52,0.26,1.03,0.55,1.53,0.84c1.04,0.59,2.02,1.15,3.1,1.51c1.44,0.47,2.95,0.55,4.54,0.63c0.92,0.05,1.87,0.1,2.81,0.23
		c1.4,0.2,2.78,0.59,4.11,0.96c1.39,0.39,2.83,0.8,4.26,0.97c3.12,0.38,6.38-0.34,9.26-0.97c2.46-0.54,4.95-1.22,6.18-3.11
		c0.02-0.03,0.04-0.06,0.05-0.08c0.15-0.23,0.46-0.3,0.69-0.15c0.23,0.15,0.3,0.45,0.16,0.69c-0.02,0.03-0.04,0.06-0.06,0.09
		c-1.38,2.18-2.23,4.65-2.49,7.2c1.15-0.8,2.59-1.2,3.98-1.07c0.28,0.03,0.48,0.27,0.45,0.55c-0.03,0.28-0.27,0.47-0.55,0.45
		c-1.5-0.15-3.07,0.46-4.09,1.57C329.98,263.83,329.85,263.89,329.71,263.89z"></path><path class="st0" d="M330.82,286.47c-0.26,0-0.48-0.2-0.5-0.47l-0.17-2.82c-1.04,0.28-2.03,0.74-3.07,1.23
		c-0.67,0.31-1.36,0.64-2.07,0.91c-1.48,0.56-4.28,1.29-6.44-0.18c-0.56-0.39-1-0.87-1.44-1.34c-0.33-0.36-0.64-0.7-0.99-0.99
		c-1.43-1.17-3.57-1.57-6.55-1.21c-0.48,0.06-0.95,0.12-1.43,0.19c-1.95,0.27-3.97,0.55-5.94,0.09c-1.07-0.25-2.06-0.71-3.02-1.15
		c-0.43-0.2-0.86-0.39-1.29-0.57c-3.92-1.62-8.31-1.71-12.55-1.8c-0.28-0.01-0.5-0.23-0.49-0.51c0.01-0.27,0.23-0.49,0.5-0.49
		c0,0,0.01,0,0.01,0c4.33,0.09,8.82,0.19,12.91,1.88c0.45,0.18,0.89,0.39,1.33,0.59c0.96,0.44,1.87,0.86,2.83,1.09
		c1.79,0.42,3.71,0.15,5.58-0.11c0.49-0.07,0.97-0.14,1.45-0.19c3.26-0.4,5.66,0.07,7.3,1.43c0.4,0.33,0.75,0.71,1.09,1.08
		c0.41,0.45,0.8,0.87,1.27,1.19c1.78,1.22,4.22,0.57,5.52,0.07c0.68-0.26,1.35-0.57,2.01-0.88c1.22-0.57,2.48-1.16,3.85-1.43
		c0.14-0.03,0.29,0.01,0.4,0.09s0.19,0.22,0.19,0.37l0.21,3.41c0.02,0.28-0.19,0.51-0.47,0.53
		C330.84,286.47,330.83,286.47,330.82,286.47z"></path><path class="st0" d="M328.54,307.17c-0.02,0-0.05,0-0.07,0c-3.62-0.53-7.23-1.33-10.73-2.38c-0.89-0.26-1.88-0.61-2.44-1.48
		c-0.15-0.24-0.25-0.48-0.35-0.72c-0.13-0.33-0.25-0.61-0.45-0.76c-0.25-0.17-0.63-0.17-1.13-0.1c-0.82,0.12-1.67,0.31-2.48,0.5
		c-1,0.23-2.04,0.46-3.1,0.58c-1.65,0.19-3.99,0.13-5.77-1.25l-0.16-0.13c-0.29-0.23-0.55-0.45-0.82-0.47
		c-0.23-0.02-0.49,0.12-0.77,0.26c-2.66,1.37-5.57,2.1-8.47,2.13c-0.32,0-0.5-0.22-0.5-0.5c0-0.28,0.22-0.5,0.5-0.5
		c2.74-0.03,5.5-0.71,7.96-1.98c0.43-0.22,0.85-0.45,1.37-0.4c0.57,0.05,1,0.39,1.37,0.69l0.14,0.12c1.52,1.17,3.58,1.22,5.04,1.04
		c1-0.12,2.01-0.34,2.99-0.57c0.83-0.19,1.7-0.38,2.56-0.51c0.64-0.09,1.31-0.11,1.86,0.28c0.44,0.32,0.63,0.79,0.8,1.2
		c0.08,0.19,0.15,0.39,0.26,0.56c0.37,0.58,1.16,0.85,1.88,1.06c3.46,1.03,7.02,1.82,10.59,2.34c0.27,0.04,0.46,0.29,0.42,0.57
		C329,306.99,328.79,307.17,328.54,307.17z"></path><path class="st0" d="M316.24,332.73c-0.87,0-1.72-0.09-2.52-0.18l-27.56-3.09c-1.06-0.12-2.52-0.42-2.93-1.68
		c-0.16-0.5-0.09-0.99-0.02-1.42c0.04-0.25,0.07-0.48,0.06-0.69c-0.02-0.44-0.2-0.81-0.54-1.11c-0.91-0.8-2.76-0.96-4.06-0.86
		l-31.23,2.46c-0.27,0.02-0.52-0.18-0.54-0.46c-0.02-0.28,0.18-0.52,0.46-0.54l31.23-2.46c0.76-0.06,3.36-0.16,4.8,1.1
		c0.55,0.48,0.84,1.09,0.88,1.81c0.01,0.31-0.03,0.6-0.07,0.88c-0.05,0.36-0.1,0.69-0.01,0.97c0.17,0.54,0.84,0.85,2.09,0.99
		l27.56,3.09c1.48,0.16,3.01,0.33,4.4-0.07c0.88-0.25,1.67-0.75,2.3-1.4c0-0.17,0.01-0.34,0.04-0.5c0.19-1.48,0.76-2.88,1.66-4.07
		c0.13-0.17,0.34-0.24,0.54-0.18c0.2,0.06,0.34,0.23,0.36,0.44c0.14,1.69-0.48,3.38-1.57,4.67c0.06,0.5,0.26,0.93,0.62,1.02
		c0.29,0.07,0.65-0.08,1.02-0.23l0.17-0.07c2.35-0.96,5.08-0.8,7.31,0.43c0.24,0.13,0.33,0.44,0.2,0.68s-0.44,0.33-0.68,0.2
		c-1.93-1.07-4.4-1.21-6.45-0.37l-0.17,0.07c-0.48,0.2-1.03,0.42-1.63,0.28c-0.62-0.15-1.01-0.6-1.22-1.17
		c-0.65,0.54-1.39,0.95-2.21,1.18C317.77,332.65,317,332.73,316.24,332.73z"></path><path class="st0" d="M321.89,363.11c-0.05,0-0.1-0.01-0.15-0.02c-0.16-0.05-0.28-0.17-0.33-0.33c-0.47-1.59-2.99-1.56-4.45-1.4
		c-13.16,1.45-26.42,0.81-39.41-1.89c-2.21-0.46-4.6-1.21-5.49-3.3c-0.19-0.44-0.28-0.9-0.38-1.34c-0.11-0.51-0.21-0.99-0.44-1.4
		c-0.61-1.07-2.07-1.58-4.34-1.5c-2.7,0.1-5.36,0.53-7.91,1.28c0.75,0.82,1.5,1.64,2.26,2.45c0.13,0.14,0.17,0.33,0.1,0.51
		s-0.22,0.3-0.4,0.33c-5.89,0.82-12.02,0.38-17.72-1.28l-0.57-0.17c-2.18-0.64-4.44-1.3-6.38-0.46c-0.14,0.06-0.3,0.05-0.43-0.02
		s-0.23-0.2-0.26-0.34c-0.37-1.84-2.28-2.95-3.9-3.19c-1.91-0.29-3.92,0.23-5.69,0.69c-0.14,0.04-0.29,0.01-0.41-0.07
		c-0.12-0.08-0.2-0.22-0.21-0.36c-0.13-1.33,0.24-2.67,0.97-3.76c-6.38,2.5-13.05,4.16-19.89,4.95c-0.28,0.03-0.52-0.17-0.55-0.44
		s0.16-0.52,0.44-0.55c7.74-0.9,15.27-2.93,22.39-6.03c0.08-0.04,0.15-0.07,0.23-0.1c0.25-0.1,0.54,0.01,0.65,0.27
		c0.11,0.25-0.01,0.54-0.26,0.65c-0.07,0.03-0.13,0.06-0.2,0.09c-1.61,0.75-2.73,2.47-2.8,4.23c1.71-0.44,3.6-0.84,5.48-0.55
		c1.79,0.27,3.88,1.45,4.57,3.43c2.14-0.66,4.46,0.02,6.52,0.62l0.57,0.17c5.26,1.52,10.89,1.99,16.35,1.37
		c-0.71-0.77-1.42-1.55-2.13-2.33c-0.12-0.13-0.16-0.3-0.11-0.47c0.04-0.17,0.17-0.3,0.33-0.35c2.87-0.92,5.88-1.44,8.93-1.55
		c2.69-0.09,4.44,0.59,5.24,2.01c0.3,0.54,0.43,1.12,0.55,1.68c0.09,0.41,0.17,0.8,0.32,1.16c0.71,1.67,2.81,2.31,4.77,2.71
		c12.88,2.68,26.04,3.31,39.09,1.87c2.65-0.29,4.48,0.24,5.24,1.49c1.24-0.8,2.72-1.24,4.21-1.24c0.02,0,0.04,0,0.05,0
		c0.28,0,0.5,0.23,0.5,0.5s-0.23,0.5-0.5,0.5c-0.02,0-0.03,0-0.05,0c-1.49,0-2.95,0.49-4.12,1.4
		C322.11,363.07,322,363.11,321.89,363.11z"></path><path class="st1" d="M354.05,406.53c-0.61,0-1.22-0.04-1.84-0.13L194.6,384.24c-3.44-0.48-6.49-2.28-8.57-5.05
		c-2.09-2.77-2.97-6.19-2.49-9.63l27.69-196.95c0.48-3.44,2.28-6.49,5.05-8.57c2.77-2.09,6.2-2.98,9.64-2.49l157.61,22.16
		c3.44,0.48,6.49,2.28,8.58,5.05c2.09,2.77,2.97,6.19,2.49,9.63L366.9,395.33c-0.48,3.44-2.28,6.49-5.05,8.58
		C359.57,405.63,356.85,406.53,354.05,406.53z M184.53,369.69L184.53,369.69c-0.45,3.18,0.37,6.33,2.3,8.89
		c1.93,2.56,4.74,4.22,7.92,4.66l157.61,22.16c3.18,0.44,6.33-0.37,8.89-2.3c2.56-1.93,4.22-4.74,4.66-7.92l27.69-196.95
		c0.45-3.18-0.37-6.33-2.3-8.89s-4.74-4.21-7.92-4.66l-157.61-22.16c-3.18-0.45-6.34,0.37-8.89,2.3c-2.56,1.93-4.21,4.74-4.66,7.92
		L184.53,369.69z"></path><rect class="st3" x="355.17" y="230.35" transform="matrix(0.1392 -0.9903 0.9903 0.1392 76.675 563.5814)" width="14.67" height="14.67"></rect><path class="st0" d="M369.18,246.54l-15.52-2.18l2.18-15.52l15.52,2.18L369.18,246.54z M354.79,243.5l13.54,1.9l1.9-13.54
		l-13.54-1.9L354.79,243.5z"></path><rect class="st3" x="351.71" y="255" transform="matrix(0.1392 -0.9903 0.9903 0.1392 49.2822 581.3647)" width="14.67" height="14.67"></rect><path class="st0" d="M365.71,271.19L350.19,269l2.18-15.52l15.52,2.18L365.71,271.19z M351.32,268.15l13.54,1.9l1.9-13.54
		l-13.54-1.9L351.32,268.15z"></path><rect class="st3" x="348.24" y="279.64" transform="matrix(0.1392 -0.9903 0.9903 0.1392 21.9005 599.1409)" width="14.67" height="14.67"></rect><path class="st0" d="M362.24,295.82l-15.52-2.18l2.18-15.52l15.52,2.18L362.24,295.82z M347.85,292.79l13.54,1.9l1.9-13.54
		l-13.54-1.9L347.85,292.79z"></path><rect class="st3" x="344.78" y="304.29" transform="matrix(0.1392 -0.9903 0.9903 0.1392 -5.4852 616.9354)" width="14.67" height="14.67"></rect><path class="st0" d="M358.79,320.47l-15.52-2.18l2.18-15.52l15.52,2.18L358.79,320.47z M344.4,317.44l13.54,1.9l1.9-13.54
		l-13.54-1.9L344.4,317.44z"></path><rect class="st3" x="341.32" y="328.93" transform="matrix(0.1392 -0.9903 0.9903 0.1392 -32.8671 634.7117)" width="14.67" height="14.67"></rect><path class="st0" d="M355.32,345.11l-15.52-2.18l2.18-15.52l15.52,2.18L355.32,345.11z M340.93,342.08l13.54,1.9l1.9-13.54
		l-13.54-1.9L340.93,342.08z"></path><rect class="st3" x="337.85" y="353.57" transform="matrix(0.1392 -0.9903 0.9903 0.1392 -60.2599 652.4951)" width="14.67" height="14.67"></rect><path class="st0" d="M351.85,369.76l-15.52-2.18l2.18-15.52l15.52,2.18L351.85,369.76z M337.46,366.73l13.54,1.9l1.9-13.54
		l-13.54-1.9L337.46,366.73z"></path><rect class="st3" x="358.63" y="205.71" transform="matrix(0.1392 -0.9903 0.9903 0.1392 104.0497 545.794)" width="14.67" height="14.67"></rect><path class="st0" d="M372.63,221.9l-15.52-2.18l2.18-15.52l15.52,2.18L372.63,221.9z M358.24,218.86l13.54,1.9l1.9-13.54
		l-13.54-1.9L358.24,218.86z"></path><polygon class="st4" points="355.57,206.43 364.67,217.34 383.51,204.28 382.62,203.12 364.81,215.47 356.54,205.57 	"></polygon><path class="st4" d="M364.58,218.01l-9.7-11.63l1.72-1.52l8.31,9.94l17.83-12.36l1.5,1.95L364.58,218.01z M356.27,206.48l8.5,10.19
		l18.03-12.5l-0.28-0.37l-17.79,12.34l-8.23-9.86L356.27,206.48z"></path><polygon class="st4" points="352.76,230.35 361.85,241.26 380.7,228.2 379.8,227.04 362,239.4 353.72,229.5 	"></polygon><path class="st4" d="M361.76,241.93l-9.69-11.63l1.71-1.51l8.32,9.94l17.81-12.37l1.51,1.95L361.76,241.93z M353.46,230.4
		l8.49,10.19l18.04-12.5l-0.29-0.37l-17.79,12.35l-8.24-9.86L353.46,230.4z"></path><polygon class="st4" points="350.05,254.73 359.14,265.64 377.99,252.58 377.09,251.41 359.29,263.77 351.01,253.87 	"></polygon><path class="st4" d="M359.05,266.31l-9.69-11.63l1.71-1.53l8.32,9.94l17.82-12.37l1.51,1.96L359.05,266.31z M350.74,254.78
		l8.49,10.19l18.04-12.5l-0.29-0.38l-17.78,12.35l-8.24-9.85L350.74,254.78z"></path><polygon class="st4" points="345.99,280.18 355.08,291.09 373.93,278.03 373.03,276.86 355.23,289.22 346.95,279.32 	"></polygon><path class="st4" d="M354.99,291.76l-9.69-11.63l1.71-1.53l8.32,9.95l17.82-12.37l1.51,1.96L354.99,291.76z M346.68,280.23
		l8.49,10.19l18.04-12.5l-0.29-0.38l-17.78,12.35l-8.24-9.85L346.68,280.23z"></path><polygon class="st4" points="341.6,304.92 350.69,315.83 369.54,302.77 368.65,301.6 350.84,313.96 342.57,304.06 	"></polygon><path class="st4" d="M350.6,316.5l-9.69-11.63l1.72-1.52l8.31,9.94l17.83-12.37l1.5,1.97L350.6,316.5z M342.3,304.97l8.49,10.19
		l18.04-12.5l-0.28-0.37l-17.79,12.35l-8.23-9.86L342.3,304.97z"></path></g><g id="cover"><path class="st4" d="M287.44,294.22l-55.51-188.1c-1.88-6.36-8.55-10-14.91-8.14L60.53,143.73c-7.31,2.14-11.5,9.81-9.33,17.12
		l62.92,212.04c1.92,6.46,8.71,10.14,15.17,8.21l55.15-16.46l4.11-25.81l88.67-25.91C285.22,310.58,289.79,302.2,287.44,294.22z"></path><path class="st1" d="M196.54,127.76c-0.21,0-0.41-0.01-0.62-0.04c-0.81-0.1-1.49-0.37-2.02-0.8c-0.69-0.55-1.09-1.34-1.44-2.03
		c-0.03-0.06-3.53-10.12-7.01-20.18c-1.74-5.03-3.49-10.06-4.79-13.84c-1.52-4.43-2.03-5.9-2.11-6.46l-0.06,0
		c-0.14-3.1,1.98-6.13,4.94-7.06c2.95-0.93,6.43,0.34,8.09,2.95c0.02,0.03,0.04,0.07,0.05,0.11l6.86,19.97
		c0.09,0.26-0.05,0.55-0.31,0.64c-0.26,0.09-0.55-0.05-0.64-0.31l-6.84-19.91c-1.44-2.21-4.4-3.27-6.92-2.48
		c-2.52,0.79-4.34,3.38-4.24,6.02c0.39,1.35,9.22,26.78,13.88,40.18c0.29,0.57,0.63,1.23,1.15,1.64c0.38,0.31,0.91,0.51,1.52,0.58
		c1.5,0.18,3.07-0.46,4-1.64c0.93-1.18,1.2-2.85,0.67-4.27c0-0.01-0.01-0.03-0.01-0.04c-0.23-0.73-9.45-28.02-9.54-28.29
		c-0.51-1.05-1.09-1.68-1.77-1.87c-0.69-0.2-1.53,0.12-2.01,0.74c-0.46,0.6-0.62,1.47-0.43,2.32c0.04,0.11,5.4,17.06,5.4,17.06
		l-0.95,0.3l-4.56-14.43c-0.48-1.52-0.73-2.3-0.8-2.72l-0.05,0.01c-0.26-1.13-0.03-2.31,0.61-3.14c0.73-0.95,1.99-1.41,3.07-1.1
		c0.97,0.27,1.76,1.07,2.42,2.46l8.09,23.95c0.89,2.64,1.3,3.85,1.41,4.44l0.07-0.03c0.64,1.74,0.32,3.79-0.83,5.23
		C199.81,126.99,198.18,127.76,196.54,127.76z"></path><rect class="st3" x="74.73" y="162.9" transform="matrix(0.9602 -0.2792 0.2792 0.9602 -41.3567 43.1243)" width="111.94" height="7.67"></rect><rect class="st3" x="79.19" y="178.26" transform="matrix(0.9602 -0.2792 0.2792 0.9602 -45.4682 44.9806)" width="111.94" height="7.67"></rect><path class="st1" d="M188.56,338.82l-66.94,20.21c-5.9,1.78-9.25,7.98-7.52,13.89l0,0c1.92,6.53,8.79,10.26,15.31,8.29l55.04-16.59
		L188.56,338.82z"></path></g><g id="pen"><path class="st4" d="M373.81,290.31L441,218.84l0,0c3.89,0.46,7.05,3.35,7.87,7.18v0.01L379.8,295.7l-9.16,4.88L373.81,290.31z"></path><path class="st1" d="M369.81,301.59l3.56-11.54l0.08-0.08l67.36-71.65l0.25,0.03c4.1,0.48,7.43,3.53,8.3,7.57l0.01,0.31l-0.14,0.16
		L380.1,296.1l-0.07,0.04L369.81,301.59z M374.25,290.56l-2.78,9l8.02-4.27l68.83-69.43c-0.8-3.37-3.64-5.98-7.14-6.49
		L374.25,290.56z"></path><path class="st1" d="M426.49,258.81c-0.13,0-0.26-0.05-0.36-0.15c-0.19-0.2-0.19-0.51,0.01-0.71l20.28-19.8l-4.54-4.7
		c-0.19-0.2-0.19-0.52,0.01-0.71c0.2-0.19,0.52-0.19,0.71,0.01l4.89,5.06c0.19,0.2,0.19,0.51-0.01,0.71l-20.64,20.15
		C426.74,258.76,426.62,258.81,426.49,258.81z"></path></g></svg>