<svg transform="scale(1)" version="1.1" id="_x30_040_x5F_Documents_x5F_2" xmlns="http://www.w3.org/2000/svg" xmlns:xlink="http://www.w3.org/1999/xlink" x="0px" y="0px" width="500px" height="500px" viewBox="0 0 500 500" xml:space="preserve" class="show_show__wrapper__graphic__5Waiy "><title>React</title><style type="text/css">
	.st0{fill:#6C63FF;}
	.st1{fill:#FFFFFF;}
	.st2{fill:#F3C623;}
	.st3{fill:#6C63FF;}
	.st4{fill:#000001;}
</style><g id="colors"><path class="st0" d="M348.22,422.08l89.71-134.71c5.77-8.67,2.06-20.45-7.63-24.25l-7.64-3l-87.41,163.73l3.51,1.3
		C342.24,426.45,346.15,425.18,348.22,422.08z"></path><polygon class="st1" points="126.85,96.64 130.1,74.42 415.51,179.18 403.38,212.1 366.07,198.82 365.41,186.13 	"></polygon><polygon class="st2" points="89.55,203.5 107.88,85.8 393.88,190.11 388.64,208.9 164.45,131.53 155.16,145.06 138.88,138.95 
		136.94,157.08 118.72,153.96 104.68,209.39 	"></polygon><polygon class="st1" points="151.83,141.87 155.95,116.18 440.52,220.54 385.13,378.19 372.27,372.67 387.72,245.23 	"></polygon><polygon class="st2" points="129.27,154.73 133.42,126.68 419.66,231.21 376.29,399.32 366.51,395.83 381.27,247.61 	"></polygon><polygon class="st1" points="370.92,412.51 86.24,305.25 112.64,137.15 398.16,241.19 	"></polygon><path class="st2" d="M139.23,237.3l12.49-70.52c0.36-2.01,2.27-3.35,4.28-2.99l0,0c2.01,0.36,3.35,2.27,2.99,4.28l-12.49,70.52
		c-0.36,2.01-2.27,3.35-4.28,2.99l0,0C140.21,241.23,138.87,239.31,139.23,237.3z"></path><path class="st2" d="M159.23,244.01l12.49-70.52c0.36-2.01,2.27-3.35,4.28-2.99l0,0c2.01,0.36,3.35,2.27,2.99,4.28L166.5,245.3
		c-0.36,2.01-2.27,3.35-4.28,2.99l0,0C160.21,247.93,158.87,246.01,159.23,244.01z"></path><path class="st2" d="M179.04,251.19l12.49-70.52c0.36-2.01,2.27-3.35,4.28-2.99l0,0c2.01,0.36,3.35,2.27,2.99,4.28l-12.49,70.52
		c-0.36,2.01-2.27,3.35-4.28,2.99l0,0C180.02,255.11,178.68,253.2,179.04,251.19z"></path><path class="st2" d="M197.54,259.22l12.49-70.52c0.36-2.01,2.27-3.35,4.28-2.99l0,0c2.01,0.36,3.35,2.27,2.99,4.28l-12.49,70.52
		c-0.36,2.01-2.27,3.35-4.28,2.99l0,0C198.52,263.15,197.18,261.23,197.54,259.22z"></path><path class="st2" d="M217.36,265.89l12.49-70.52c0.36-2.01,2.27-3.35,4.28-2.99l0,0c2.01,0.36,3.35,2.27,2.99,4.28l-12.49,70.52
		c-0.36,2.01-2.27,3.35-4.28,2.99l0,0C218.34,269.81,217,267.9,217.36,265.89z"></path><path class="st2" d="M237.26,273.51l12.49-70.52c0.36-2.01,2.27-3.35,4.28-2.99l0,0c2.01,0.36,3.35,2.27,2.99,4.28l-12.49,70.52
		c-0.36,2.01-2.27,3.35-4.28,2.99l0,0C238.25,277.44,236.91,275.52,237.26,273.51z"></path><path class="st2" d="M255.67,280.59l12.49-70.52c0.36-2.01,2.27-3.35,4.28-2.99l0,0c2.01,0.36,3.35,2.27,2.99,4.28l-12.49,70.52
		c-0.36,2.01-2.27,3.35-4.28,2.99l0,0C256.65,284.51,255.31,282.6,255.67,280.59z"></path><path class="st3" d="M95.29,325.57l20.33-131.11c0.74-4.76,5.68-7.63,10.18-5.9l143.19,54.91c7.8,2.99,16.57-0.62,20.01-8.23l0,0
		c2.15-4.76,7.63-7.03,12.52-5.18l54.87,20.78c8.57,3.25,13.68,12.07,12.23,21.12l-23.89,149.26c-0.5,3.12-3.75,4.99-6.7,3.85
		L99.24,332.43C96.48,331.36,94.83,328.51,95.29,325.57z"></path></g><g id="line"><path class="st4" d="M370.9,412.95c-0.06,0-0.12-0.01-0.17-0.03l-22.04-8.19c-0.26-0.1-0.39-0.38-0.29-0.64
		c0.1-0.26,0.39-0.39,0.64-0.29l21.47,7.98l27.18-170.16L113.13,138.04l-11.05,69.32c-0.04,0.27-0.3,0.46-0.57,0.42
		c-0.27-0.04-0.46-0.3-0.42-0.57l11.15-69.92c0.02-0.15,0.11-0.28,0.24-0.35c0.13-0.07,0.29-0.09,0.42-0.04l285.51,103.92
		c0.23,0.08,0.36,0.31,0.32,0.55L371.4,412.53c-0.02,0.15-0.11,0.28-0.24,0.35C371.08,412.93,370.99,412.95,370.9,412.95z"></path><path class="st4" d="M376.25,399.61c-0.04,0-0.08,0-0.12-0.02c-0.27-0.07-0.43-0.34-0.36-0.61l43.25-167.45L133.54,127.46
		l-1.68,13.3c-0.03,0.27-0.29,0.47-0.56,0.43c-0.27-0.03-0.47-0.28-0.43-0.56l1.76-13.92c0.02-0.15,0.11-0.29,0.24-0.36
		c0.13-0.08,0.29-0.1,0.43-0.04l286.49,104.45c0.24,0.09,0.38,0.35,0.31,0.59l-43.36,167.89
		C376.68,399.46,376.48,399.61,376.25,399.61z"></path><path class="st4" d="M385,378.52c-0.05,0-0.11-0.01-0.17-0.03c-0.26-0.09-0.4-0.38-0.31-0.64l55.12-157.05L156.39,116.94
		l-2.47,15.13c-0.04,0.27-0.3,0.46-0.57,0.41c-0.27-0.04-0.46-0.3-0.41-0.57l2.57-15.73c0.02-0.15,0.11-0.28,0.24-0.35
		c0.13-0.08,0.28-0.09,0.42-0.04l284.29,104.24c0.26,0.09,0.39,0.38,0.3,0.63l-55.28,157.52C385.4,378.39,385.21,378.52,385,378.52z
		"></path><path class="st4" d="M405.42,206.52c-0.06,0-0.12-0.01-0.18-0.03c-0.26-0.1-0.39-0.39-0.29-0.64l9.92-26.33L130.58,75.02
		l-2.46,16.77c-0.04,0.27-0.29,0.46-0.57,0.42c-0.27-0.04-0.46-0.29-0.42-0.57l2.55-17.38c0.02-0.15,0.11-0.28,0.24-0.36
		c0.13-0.08,0.29-0.09,0.43-0.04L415.7,178.75c0.12,0.05,0.23,0.14,0.28,0.26c0.05,0.12,0.06,0.26,0.01,0.38l-10.1,26.8
		C405.82,206.4,405.63,206.52,405.42,206.52z"></path><path class="st4" d="M332.26,265.38c-0.16,0-0.32-0.08-0.42-0.23c-0.14-0.22-0.09-0.51,0.11-0.67c3.61-2.83,7.47-5.43,11.49-7.77
		c-6.56,1-13.31,0.55-19.69-1.32c-0.23-0.07-0.66-0.19-0.93-0.56c-0.17-0.24-0.21-0.5-0.24-0.7c-0.01-0.06-0.02-0.13-0.04-0.19
		c-0.2-0.87-1.5-1.12-2.55-1.18l-4.09-0.24c-0.28-0.01-1.14-0.06-1.4-0.79c-0.11-0.28-0.05-0.56-0.02-0.76
		c0.02-0.09,0.03-0.18,0.03-0.23c-0.02-0.23-0.51-0.4-0.99-0.44c-2.35-0.2-4.77-0.15-7.11-0.09c-3.38,0.08-6.88,0.16-10.27-0.53
		c-0.81-0.17-1.6-0.5-2.15-0.98c-1.89,0.08-3.77,0.07-5.64-0.04c-0.28-0.02-0.49-0.25-0.47-0.53c0.02-0.28,0.26-0.48,0.53-0.47
		c1.62,0.09,3.26,0.11,4.89,0.06c-0.09-0.27-0.12-0.57-0.06-0.88c0.13-0.79,0.76-1.33,1.29-1.71c1.77-1.26,3.85-2.02,5.83-2.69
		c2.95-0.99,6.38-1.99,9.67-1.18c1.06,0.26,2.2,0.95,2.23,2.09c0.01,0.68-0.36,1.63-2.25,2.28c-4.53,1.58-9.31,2.57-14.11,2.94
		c0.15,0.05,0.3,0.08,0.44,0.11c3.28,0.67,6.72,0.59,10.04,0.51c2.37-0.06,4.81-0.11,7.22,0.1c1.13,0.09,1.84,0.6,1.91,1.36
		c0.01,0.19-0.02,0.36-0.04,0.49c-0.01,0.08-0.04,0.2-0.03,0.24c0,0,0.06,0.11,0.52,0.13l4.09,0.24c2.52,0.14,3.28,1.14,3.47,1.94
		c0.02,0.08,0.04,0.17,0.05,0.26c0.02,0.11,0.04,0.24,0.07,0.29c0.06,0.08,0.29,0.15,0.39,0.18c7.2,2.11,14.88,2.37,22.2,0.74
		c0.24-0.05,0.49,0.08,0.58,0.31c0.09,0.23-0.01,0.5-0.23,0.61c-3.95,2.14-7.76,4.54-11.36,7.16c2.03-0.45,4.07-0.44,5.79-0.35
		c0.85,0.04,1.7,0.11,2.55,0.17c2.08,0.16,4.23,0.33,6.31,0.13c0.28-0.02,0.52,0.17,0.55,0.45c0.03,0.28-0.17,0.52-0.45,0.55
		c-2.17,0.21-4.37,0.04-6.49-0.12c-0.84-0.07-1.68-0.13-2.52-0.17c-2.51-0.12-5.74-0.08-8.46,1.4
		C332.43,265.36,332.35,265.38,332.26,265.38z M307.49,241.97c-2.33,0-4.69,0.71-6.8,1.42c-1.91,0.64-3.91,1.37-5.57,2.55
		c-0.38,0.27-0.81,0.63-0.89,1.06c-0.04,0.25,0.03,0.47,0.18,0.67c5.2-0.27,10.39-1.28,15.29-2.99c0.73-0.25,1.59-0.69,1.57-1.32
		c-0.01-0.58-0.8-0.98-1.47-1.14C309.04,242.05,308.26,241.97,307.49,241.97z"></path><path class="st4" d="M96.88,309.61c-0.06,0-0.12-0.01-0.18-0.03l-10.43-4.07c-0.22-0.08-0.35-0.31-0.31-0.54l9.55-62.81
		c0.04-0.27,0.29-0.46,0.57-0.42c0.27,0.04,0.46,0.3,0.42,0.57l-9.49,62.41l10.06,3.92c0.26,0.1,0.38,0.39,0.28,0.65
		C97.27,309.49,97.08,309.61,96.88,309.61z"></path><path class="st0" d="M126.15,250.27c-2.11,0-4.17-0.67-6.13-1.44c-14.36-5.65-51.74-20.36-53.67-21.03
		c-0.21-0.05-0.41-0.15-0.58-0.3c-2.66-2.23-6.12-5.97-7.44-11.12c-1.23-4.79-0.19-9.88,2.72-13.29c3.26-3.82,8.94-5.21,13.21-3.24
		l26.46,10.2c0.77,0.3,1.16,1.17,0.86,1.94c-0.3,0.77-1.17,1.16-1.94,0.86l-26.55-10.24c-3.18-1.47-7.34-0.41-9.76,2.42
		c-2.28,2.68-3.09,6.74-2.1,10.59c1.1,4.27,3.98,7.45,6.28,9.41c0.49,0.16,1.16,0.42,2.09,0.78c1.48,0.57,3.59,1.39,6.12,2.38
		c5.05,1.97,11.78,4.61,18.51,7.25c13.45,5.28,26.89,10.57,26.89,10.57c2.13,0.83,4.38,1.55,6.38,1.08c3.01-0.7,4.83-4.08,4.86-6.95
		c0.03-3.7-2.44-7.37-5.87-8.75c-1.15-0.41-44.8-15.65-45.24-15.81c-0.82-0.22-1.77-0.45-2.34-0.15c-0.31,0.16-0.6,0.53-0.81,1.05
		c-0.41,0.99-0.44,2.13-0.08,3.14c0.35,1.01,1.1,1.87,2.05,2.37c0.01,0.01,0.02,0.01,0.03,0.02c1.45,0.64,21.31,8.28,34.47,13.31
		c0.77,0.3,1.16,1.16,0.86,1.94c-0.3,0.77-1.16,1.16-1.94,0.86c0,0-8.67-3.32-17.34-6.65c-4.34-1.67-8.67-3.34-11.92-4.6
		c-3.06-1.19-4.68-1.82-5.53-2.28l-0.03,0.06c-1.61-0.85-2.87-2.31-3.47-4.02c-0.6-1.69-0.55-3.62,0.14-5.29
		c0.49-1.18,1.26-2.06,2.2-2.56c1.67-0.86,3.51-0.35,4.61-0.05l43.43,15.17c0.92,0.32,1.55,0.54,1.99,0.74l0.01-0.03
		c4.62,1.83,7.82,6.59,7.79,11.56c-0.04,4.68-3.12,8.91-7.18,9.85C127.5,250.2,126.83,250.27,126.15,250.27z"></path></g></svg>