<svg transform="scale(1)" version="1.1" id="_x30_206_x5F_Augmented_x5F_Reality_x5F_2" xmlns="http://www.w3.org/2000/svg" xmlns:xlink="http://www.w3.org/1999/xlink" x="0px" y="0px" width="500px" height="500px" viewBox="0 0 500 500" xml:space="preserve" class="show_show__wrapper__graphic__5Waiy "><title>React</title><style type="text/css">
	.st0{fill:#000001;}
	.st1{fill:#6C63FF;}
	.st2{fill:#FFFFFF;}
	.st3{fill:#FFD966;}
	.st4{fill:#6C63FF;}
</style><g id="phone"><g id="coo"><path class="st0" d="M244.13,79.34c0,0,7.19,9.56,9.05,11.7s2.84,5.06,2.39,8.14L217.53,361c-1.58,10.9-10.93,18.97-21.94,18.95
			l-124.74-0.2c-3.13,0-5.99-1.05-8.27-2.79c-3.8-2.9-11.54-14.37-11.31-14.3c2.49,2.48,5.96,3.96,9.47,4.02
			c0,0,125.86,0.49,125.71,0.39c4.92-0.34,9.72-2.29,13.48-5.47s6.49-7.58,7.65-12.38c0,0,37.79-261.69,37.92-261.72
			C245.88,84.89,245.73,82.11,244.13,79.34z"></path><path class="st1" d="M47.32,351.08L85.98,87.47c1.03-7.03,7.04-12.25,14.15-12.28l135.33-0.64c6.22-0.03,11.01,5.48,10.12,11.64
			l-38.04,261.82c-1.58,10.9-10.93,18.97-21.94,18.95l-124.74-0.2C52.5,366.75,46.11,359.34,47.32,351.08z"></path><path class="st2" d="M60.7,359.9l124.07,1.35c8.88,0.1,16.45-6.41,17.69-15.2L238.8,87.03c0.45-3.24-2.07-6.13-5.34-6.11
			L98.79,81.59c-4,0.02-7.38,2.97-7.93,6.93L53.88,351.97C53.3,356.13,56.5,359.85,60.7,359.9z"></path><path class="st0" d="M130.53,89.34L130.53,89.34c0-2.35,1.9-4.25,4.25-4.25h48.75c2.35,0,4.25,1.9,4.25,4.25l0,0
			c0,2.35-1.9,4.25-4.25,4.25h-48.75C132.43,93.59,130.53,91.69,130.53,89.34z"></path><circle class="st1" cx="150.28" cy="260.3" r="35.32"></circle><polygon class="st3" points="207.74,173.02 143.25,217.72 214.27,251.21 		"></polygon><rect class="st4" x="114.96" y="295.63" width="63.8" height="63.8"></rect><path class="st4" d="M228.36,161.64c-1.13,0.1-2.27,0.2-3.4,0.3L105,161.87l-2.5,15.72l95.72-0.2l10.41-6.31l1.4,6.91l15.72,0.2
			L228.36,161.64z"></path></g><g id="line"><path class="st0" d="M195.62,380.45c-0.01,0-0.03,0-0.04,0l-124.74-0.2c-3.13,0-6.09-1-8.57-2.89
			c-3.82-2.92-11.33-14.02-11.65-14.49c-0.15-0.23-0.09-0.54,0.13-0.69c0.23-0.16,0.54-0.09,0.69,0.13
			c0.08,0.11,7.74,11.43,11.43,14.25c2.3,1.76,5.06,2.69,7.97,2.69l124.74,0.2c0.01,0,0.03,0,0.04,0c10.68,0,19.87-7.96,21.41-18.52
			l38.04-261.82c0.41-2.79-0.42-5.61-2.27-7.74c-1.85-2.13-8.78-11.34-9.07-11.73c-0.17-0.22-0.12-0.53,0.1-0.7
			c0.22-0.17,0.53-0.12,0.7,0.1c0.07,0.1,7.2,9.57,9.03,11.67c2.04,2.35,2.96,5.46,2.51,8.54l-38.04,261.82
			C216.42,372.13,206.79,380.45,195.62,380.45z"></path><path class="st0" d="M185.64,367.46c-0.01,0-0.03,0-0.04,0l-124.74-0.2c-4.13,0-8.04-1.8-10.74-4.92
			c-2.69-3.12-3.9-7.25-3.3-11.33l0,0L85.48,87.4c1.07-7.33,7.23-12.68,14.64-12.71l135.33-0.64c0.02,0,0.04,0,0.05,0
			c3.09,0,6.02,1.33,8.05,3.67c2.04,2.35,2.96,5.46,2.51,8.54l-38.04,261.82C206.43,359.14,196.8,367.46,185.64,367.46z
			 M47.81,351.15c-0.56,3.79,0.56,7.63,3.07,10.53c2.5,2.9,6.14,4.57,9.98,4.57l124.74,0.2c0.01,0,0.03,0,0.04,0
			c10.68,0,19.87-7.96,21.4-18.52l38.04-261.82c0.4-2.79-0.43-5.62-2.28-7.74c-1.84-2.11-4.5-3.32-7.3-3.32c-0.02,0-0.03,0-0.05,0
			l-135.33,0.64c-6.91,0.03-12.66,5.01-13.66,11.85L47.81,351.15z"></path><path class="st0" d="M184.96,361.75c-0.07,0-0.14,0-0.2,0L60.69,360.4c0,0,0,0,0,0c-2.15-0.03-4.18-0.97-5.58-2.6
			c-1.4-1.62-2.03-3.78-1.73-5.9L90.36,88.45c0.58-4.17,4.2-7.34,8.42-7.36l134.67-0.67c0.01,0,0.02,0,0.04,0
			c1.69,0,3.29,0.73,4.4,2c1.12,1.28,1.63,2.99,1.4,4.68l-36.34,259.02C201.69,355.06,193.98,361.75,184.96,361.75z M60.7,359.4
			l124.07,1.35c0.06,0,0.13,0,0.19,0c8.52,0,15.8-6.32,17-14.77L238.3,86.96c0.19-1.4-0.23-2.82-1.16-3.89
			c-0.92-1.05-2.25-1.66-3.65-1.66c-0.01,0-0.02,0-0.03,0L98.79,82.09c-3.73,0.02-6.93,2.81-7.44,6.5L54.37,352.04
			c-0.26,1.84,0.29,3.7,1.5,5.11C57.08,358.56,58.84,359.38,60.7,359.4L60.7,359.4z"></path><path class="st0" d="M73.05,358.92c-0.03,0-0.05,0-0.08-0.01c-0.27-0.04-0.46-0.3-0.41-0.57l31.69-196.7
			c0.04-0.24,0.25-0.42,0.49-0.42h122.32c0.28,0,0.5,0.22,0.5,0.5s-0.22,0.5-0.5,0.5H105.16L73.54,358.5
			C73.5,358.75,73.29,358.92,73.05,358.92z"></path><path class="st0" d="M190.65,177.94h-87.48c-0.28,0-0.5-0.22-0.5-0.5s0.22-0.5,0.5-0.5h87.48c0.28,0,0.5,0.22,0.5,0.5
			S190.92,177.94,190.65,177.94z"></path><path class="st0" d="M225,178.47h-13.42c-0.28,0-0.5-0.22-0.5-0.5s0.22-0.5,0.5-0.5H225c0.28,0,0.5,0.22,0.5,0.5
			S225.27,178.47,225,178.47z"></path><path class="st0" d="M98.69,158.16H86.16c-0.15,0-0.28-0.06-0.38-0.17c-0.09-0.11-0.14-0.26-0.12-0.4l1.68-11.21
			c0.04-0.24,0.25-0.43,0.49-0.43h12.71c0.15,0,0.29,0.06,0.38,0.18c0.1,0.11,0.14,0.26,0.11,0.41l-1.86,11.21
			C99.14,157.98,98.93,158.16,98.69,158.16z M86.74,157.16h11.53l1.69-10.21H88.27L86.74,157.16z"></path><path class="st0" d="M104.66,123.42H91.75c-0.14,0-0.28-0.06-0.37-0.17c-0.1-0.11-0.14-0.25-0.12-0.39l1.63-13.83
			c0.02-0.2,0.16-0.37,0.36-0.42c0.19-0.06,0.4,0.01,0.53,0.16l11.28,13.83c0.12,0.15,0.15,0.36,0.06,0.53
			S104.85,123.42,104.66,123.42z M92.31,122.42h11.29l-9.87-12.1L92.31,122.42z"></path><path class="st0" d="M96.48,142.3c-4.2,0-7.62-3.42-7.62-7.62s3.42-7.62,7.62-7.62s7.62,3.42,7.62,7.62S100.68,142.3,96.48,142.3z
			 M96.48,128.06c-3.65,0-6.62,2.97-6.62,6.62c0,3.65,2.97,6.62,6.62,6.62c3.65,0,6.62-2.97,6.62-6.62
			C103.1,131.03,100.13,128.06,96.48,128.06z"></path><path class="st0" d="M107.34,98.76c-0.14,0-0.29-0.06-0.38-0.18l-9.11-10.89c-0.18-0.21-0.15-0.53,0.06-0.7
			c0.21-0.18,0.53-0.15,0.7,0.06l9.11,10.89c0.18,0.21,0.15,0.53-0.06,0.7C107.56,98.72,107.45,98.76,107.34,98.76z"></path><path class="st0" d="M96.24,98.5c-0.14,0-0.28-0.06-0.37-0.17c-0.18-0.21-0.16-0.52,0.04-0.71l12.17-10.79
			c0.21-0.18,0.52-0.17,0.71,0.04c0.18,0.21,0.16,0.52-0.04,0.71L96.57,98.37C96.47,98.46,96.35,98.5,96.24,98.5z"></path></g></g><g id="hand"><g id="color"><path class="st3" d="M40.77,301.13c1.09,6.94,3.33,13.7,6.59,19.92c0.76,1.46,1.88,3.18,3.23,4.12l24.74-168.59
			c0,0-0.75-1.29-0.68-1.33c-1.14-2.17-2.69-4.09-4.39-5.85c-0.78-0.81-1.6-1.58-2.5-2.26c-1.23-0.92-2.6-1.64-3.98-2.31
			c-1.17-0.56-2.36-1.1-3.63-1.33c-1.66-0.31-3.37-0.1-5.28,0.39c-2.24,0.85-4.04,2.65-5.19,4.76c-1.14,2.11-1.67,4.5-1.84,6.89
			c-0.37,5.25,0.92,10.45,1.84,15.62c1.58,8.89,2.08,17.97,1.75,27.77c-1.47,17.51-5.15,34.75-8.73,52.48
			C39.34,267.76,38.16,284.56,40.77,301.13z"></path><path class="st3" d="M254.09,128.96c-3.58,2.86-6.73,6.26-9.31,10.05c-1.72,2.52-3.19,5.24-3.98,8.18s-0.86,6.14,0.18,9
			c1.04,2.87,3.02,5.36,5.89,6.37l-3.12,21.21l5.41-3.29c0,0,20.56-17.1,20.88-17.67c1.97-2.52,3.67-5.26,5.05-8.15
			c0.7-1.46,1.33-2.98,1.66-4.57c0.4-1.92,0.37-3.91,0.21-5.86c-0.37-4.58-1.45-9.23-4.08-13c-1.02-1.46-2.26-2.77-3.67-3.86
			c-1.27-0.99-2.7-1.81-4.27-2.16C261.39,124.41,257.7,126.08,254.09,128.96z"></path><path class="st3" d="M251.24,185.47c-9.19,4.88-17.58,11.69-22.88,20.64c-1.07,1.8-2.01,3.69-2.5,5.72
			c-0.5,2.03-0.53,4.22,0.2,6.18c0.43,1.16,1.12,2.22,1.94,3.16c1.25,1.43,2.82,2.58,4.56,3.34c1.63,0.71,3.38,1.09,5.15,1.29
			l-0.63,4.11c0,0-1.87,1.27-2.03,1.37c-3.17,2.7-6.26,5.53-8.82,8.82c-2.56,3.29-4.56,7.08-5.3,11.18
			c-0.5,2.76-0.38,5.76,1.06,8.17c1.99,3.34,6.23,4.9,10.08,4.4l-1.12,7.93c0,0-2.19,1.63-2.27,1.87c-2.16,1.72-3.91,3.9-5.48,6.18
			c-0.94,1.36-1.84,2.79-2.31,4.38s-0.47,3.38,0.33,4.83c0.65,1.18,1.77,2.04,2.99,2.59s2.4,0.83,3.73,1.05l-2.72,19.09
			c0,0,1.69-0.67,1.85-0.82c3.31-1.49,6.49-3.29,9.93-5.9c1.55-0.49,2.91-1.41,4.24-2.34c6.5-4.52,12.82-9.38,18.11-15.27
			c5.29-5.89,9.53-12.87,11.33-20.58c0.58-2.51,0.85-5.35-0.63-7.46c-1.91-2.71-5.75-3-9.07-3.02c0,0,11.41-16.76,11.47-16.81
			c0.6-1.78,1.2-3.56,1.81-5.33c1.11-3.26,2.23-6.74,1.46-10.24c-0.7-3.35-3.3-6.24-6.57-7.27c-1.01-0.32-2.06-0.47-3.07-0.78
			c0,0,8.63-16.59,8.77-17.07c0.52-2.18,1.05-4.37,1.14-6.6c0.09-2.24-0.29-4.54-1.45-6.45c-1.48-2.42-4.13-3.99-6.91-4.54
			c-2.78-0.55-5.69-0.16-8.39,0.69C256.52,182.79,253.95,184.03,251.24,185.47z"></path></g><g id="line_1_"><path class="st0" d="M49.19,324.45c-0.17,0-0.33-0.09-0.43-0.24c-7.3-12.12-10.65-27.35-9.93-45.28
			c0.54-13.67,3.34-27.31,6.05-40.5c0.39-1.9,0.78-3.8,1.16-5.7c2.97-14.72,5.78-30.41,4.73-46.22c-0.32-4.89-1.03-9.84-1.7-14.62
			c-0.43-3.04-0.88-6.18-1.22-9.29c-0.41-3.66-0.74-7.89,0.48-11.79c1.34-4.3,4.59-7.5,8.29-8.15c2.51-0.45,5.33,0.19,8.36,1.9
			c4.27,2.41,7.82,6.15,9.98,10.54c0.12,0.25,0.02,0.55-0.23,0.67c-0.25,0.12-0.55,0.02-0.67-0.23c-2.08-4.22-5.48-7.81-9.58-10.12
			c-2.83-1.59-5.42-2.19-7.7-1.78c-3.33,0.59-6.28,3.52-7.51,7.47c-1.16,3.72-0.84,7.83-0.44,11.39c0.34,3.09,0.79,6.23,1.22,9.26
			c0.68,4.8,1.39,9.76,1.71,14.69c1.06,15.93-1.77,31.7-4.75,46.48c-0.38,1.9-0.77,3.8-1.16,5.71c-2.7,13.15-5.49,26.75-6.03,40.34
			c-0.71,17.73,2.59,32.77,9.79,44.72c0.14,0.24,0.07,0.54-0.17,0.69C49.36,324.43,49.27,324.45,49.19,324.45z"></path><path class="st0" d="M254.37,164.14c-2.18,0-4.49-0.33-6.89-0.99c-0.27-0.07-0.42-0.35-0.35-0.61c0.07-0.27,0.35-0.42,0.61-0.35
			c3.11,0.86,6.05,1.14,8.73,0.84c3.08-0.34,5.85-1.44,8.01-3.16c0.22-0.17,0.53-0.14,0.7,0.08c0.17,0.22,0.14,0.53-0.08,0.7
			c-2.31,1.85-5.26,3.01-8.53,3.38C255.87,164.1,255.13,164.14,254.37,164.14z"></path><path class="st0" d="M245.07,183.62c-0.15,0-0.3-0.07-0.4-0.19c-0.17-0.22-0.13-0.53,0.09-0.7c2.5-1.94,5-3.88,7.51-5.82
			c2.5-1.94,5-3.87,7.5-5.81c3.32-2.58,6.69-5.19,9.53-8.21c3.2-3.41,5.36-6.95,6.42-10.52c0.77-2.65,1.05-5.65,0.81-8.93
			c-0.47-6.37-2.82-11.66-6.61-14.9c-1.14-0.98-2.32-1.69-3.5-2.09c-2.1-0.71-4.62-0.6-7.1,0.31c-1.99,0.73-3.94,1.91-6.33,3.82
			c-0.21,0.17-0.53,0.14-0.7-0.08c-0.17-0.22-0.14-0.53,0.08-0.7c2.47-1.99,4.51-3.21,6.61-3.98c2.69-0.99,5.44-1.1,7.76-0.31
			c1.31,0.44,2.6,1.21,3.84,2.27c3.99,3.41,6.46,8.95,6.95,15.58c0.25,3.4-0.04,6.52-0.85,9.29c-1.1,3.72-3.34,7.4-6.65,10.92
			c-2.9,3.08-6.29,5.71-9.58,8.26c-2.57,1.99-5.07,3.93-7.58,5.87c-2.5,1.94-5,3.87-7.5,5.81
			C245.28,183.59,245.17,183.62,245.07,183.62z"></path><path class="st0" d="M256.64,159.28c-0.03,0-0.07,0-0.1-0.01c-5.32-1.12-7.58-5.37-8.45-7.8c-1.32-3.67-1.34-7.61-1.26-11.01
			c0-0.17,0.09-0.32,0.23-0.41c3.02-1.96,6.27-3.85,9.72-3.52c3.24,0.31,6.27,2.71,7.54,5.98c1.16,2.98,0.92,6.51-0.67,9.69
			c-1.37,2.74-3.7,5.16-6.75,7.01C256.82,159.26,256.73,159.28,256.64,159.28z M247.82,140.75c-0.07,3.25-0.02,6.97,1.21,10.38
			c0.79,2.21,2.81,6.04,7.52,7.12c2.8-1.74,4.94-3.98,6.2-6.5c1.44-2.88,1.67-6.2,0.63-8.88c-1.14-2.92-3.83-5.07-6.7-5.34
			C253.62,137.24,250.63,138.93,247.82,140.75z"></path><path class="st0" d="M266.47,215.58c-0.09,0-0.19-0.03-0.27-0.08c-0.23-0.15-0.29-0.46-0.14-0.69c2.92-4.45,5.4-9.23,7.36-14.22
			c0.94-2.38,1.91-5.22,2.05-8.14c0.14-3.04-0.71-5.76-2.38-7.65c-1.8-2.03-4.68-3.22-7.91-3.25c-2.53-0.04-5.26,0.59-8.75,2.01
			c-4.41,1.79-8.57,4.19-12.36,7.12c-0.22,0.17-0.53,0.13-0.7-0.09c-0.17-0.22-0.13-0.53,0.09-0.7c3.86-2.99,8.1-5.43,12.6-7.26
			c3.61-1.47,6.4-2.13,9.13-2.09c3.51,0.03,6.67,1.34,8.65,3.59c1.84,2.09,2.77,5.05,2.62,8.35c-0.14,3.07-1.15,6-2.11,8.46
			c-1.99,5.05-4.5,9.9-7.46,14.4C266.79,215.5,266.63,215.58,266.47,215.58z"></path><path class="st0" d="M237.25,219.63c-2.66,0-5.15-1.31-6.29-3.36c-1.36-2.45-0.76-5.37-0.01-7.4c1.83-4.97,5.84-9.17,10.72-11.22
			c1.08-0.45,1.99-0.71,2.88-0.82c3.32-0.38,6.77,1.76,8.03,4.98c1.12,2.88,0.83,7.05-2.35,9.89l0,0c-0.65,0.58-1.28,1.18-1.91,1.78
			c-1.14,1.09-2.32,2.21-3.61,3.19c-2.37,1.82-4.72,2.8-6.99,2.93C237.56,219.63,237.41,219.63,237.25,219.63z M245.31,197.8
			c-0.22,0-0.44,0.01-0.66,0.04c-0.78,0.09-1.61,0.33-2.6,0.74c-4.63,1.95-8.43,5.92-10.16,10.64c-0.67,1.83-1.23,4.45-0.05,6.56
			c1.02,1.83,3.37,2.98,5.82,2.83c2.06-0.12,4.22-1.04,6.43-2.73c1.24-0.95,2.4-2.06,3.53-3.12c0.64-0.61,1.28-1.22,1.94-1.8v0
			c2.83-2.52,3.09-6.22,2.09-8.77C250.62,199.6,247.98,197.8,245.31,197.8z"></path><path class="st0" d="M261.57,255.85c-0.1,0-0.2-0.03-0.29-0.09c-0.23-0.16-0.28-0.47-0.12-0.7c4-5.63,8.14-11.46,11.33-17.8
			c1.41-2.82,2.87-6.18,3.05-9.77c0.18-3.66-1.22-7.08-3.64-8.93c-2.01-1.53-4.4-1.89-6.06-1.93c-1.91-0.04-3.91,0.27-6.52,1.02
			c-7.83,2.22-15.1,6.35-21.03,11.94c-0.2,0.19-0.52,0.18-0.71-0.02c-0.19-0.2-0.18-0.52,0.02-0.71
			c6.05-5.71,13.47-9.92,21.45-12.18c2.72-0.78,4.84-1.1,6.82-1.06c1.8,0.04,4.42,0.44,6.64,2.13c2.68,2.05,4.23,5.79,4.04,9.77
			c-0.18,3.77-1.7,7.26-3.15,10.17c-3.23,6.41-7.39,12.26-11.41,17.92C261.88,255.78,261.72,255.85,261.57,255.85z"></path><path class="st0" d="M234.56,263.98c-0.62,0-1.24-0.03-1.85-0.1c-0.27-0.03-0.47-0.28-0.44-0.55c0.03-0.28,0.27-0.48,0.55-0.44
			c3.31,0.36,6.73-0.32,9.63-1.9c0.24-0.13,0.55-0.04,0.68,0.2s0.04,0.55-0.2,0.68C240.38,263.25,237.47,263.98,234.56,263.98z"></path><path class="st0" d="M233.83,259.76c-2.76,0-5.23-1.16-6.48-3.04c-2.06-3.1-0.64-7.17,0.39-9.32c1.48-3.1,3.61-5.98,6.14-8.33
			c1.27-1.19,2.4-1.98,3.55-2.48c2.42-1.06,5.36-0.92,7.66,0.36c2.31,1.29,3.97,3.72,4.34,6.34c0.15,1.06,0.11,2.22-0.11,3.64
			c-0.88,5.42-3.87,9.45-8.2,11.07l0,0c-2.14,0.8-4.56,1.71-7.08,1.77C233.97,259.76,233.9,259.76,233.83,259.76z M240.88,236.87
			c-1.05,0-2.1,0.21-3.05,0.62c-1.04,0.46-2.08,1.19-3.27,2.3c-2.44,2.27-4.49,5.04-5.92,8.03c-0.94,1.96-2.24,5.65-0.45,8.34
			c1.31,1.98,3.87,2.63,5.83,2.6c2.36-0.06,4.69-0.93,6.75-1.71c0,0,0,0,0,0c5.65-2.12,7.17-7.9,7.56-10.29
			c0.21-1.32,0.24-2.38,0.11-3.34c-0.33-2.31-1.8-4.46-3.84-5.6C243.47,237.19,242.18,236.87,240.88,236.87z"></path><path class="st0" d="M228.79,292.86c-0.25,0-0.46-0.18-0.5-0.43c-0.04-0.27,0.16-0.53,0.43-0.56c11.94-1.6,23.51-6.02,33.47-12.78
			c0.23-0.15,0.54-0.09,0.7,0.13c0.15,0.23,0.1,0.54-0.13,0.7c-10.09,6.85-21.81,11.32-33.9,12.94
			C228.83,292.86,228.81,292.86,228.79,292.86z"></path><path class="st0" d="M225.99,312c-0.19,0-0.37-0.11-0.45-0.29c-0.12-0.25-0.01-0.55,0.24-0.67c8.67-4.13,16.82-9.32,24.21-15.41
			c11.38-9.38,18.01-18.84,20.26-28.92c0.52-2.3,1-6.47-1.57-8.57c-1.11-0.91-2.71-1.34-4.76-1.32c-3.34,0.06-6.64,1.2-9.7,2.42
			c-7.79,3.12-15.24,7.16-22.15,12c-0.23,0.16-0.54,0.1-0.7-0.12c-0.16-0.23-0.1-0.54,0.12-0.7c6.97-4.89,14.49-8.97,22.35-12.11
			c3.16-1.26,6.56-2.42,10.06-2.49c2.28-0.02,4.12,0.48,5.42,1.54c2.98,2.44,2.47,7.04,1.91,9.57c-2.3,10.31-9.04,19.95-20.6,29.48
			c-7.45,6.15-15.67,11.38-24.41,15.54C226.13,311.98,226.06,312,225.99,312z"></path><path class="st0" d="M229.02,289.04c-0.29,0-0.57-0.01-0.86-0.03c-1.4-0.11-2.44-0.48-3.16-1.14c-0.95-0.85-1.41-2.25-1.24-3.73
			c0.16-1.38,0.8-2.61,1.35-3.53c1.47-2.49,3.08-4.24,4.95-5.35c0,0,0,0,0,0l0.24-0.14c1.18-0.7,2.4-1.41,3.85-1.56
			c1.93-0.19,3.97,0.69,5.48,2.36c1.77,1.97,2.71,5.45,0.98,8.01c-0.81,1.2-2.06,1.99-3.17,2.61
			C234.44,288.2,231.62,289.04,229.02,289.04z M230.56,276.12c-1.71,1.02-3.21,2.65-4.59,4.99c-0.49,0.84-1.07,1.95-1.21,3.14
			c-0.13,1.14,0.22,2.24,0.92,2.87c0.55,0.5,1.39,0.79,2.56,0.88c2.64,0.19,5.56-0.6,8.71-2.35c1.01-0.56,2.14-1.27,2.83-2.29
			c1.44-2.14,0.61-5.09-0.9-6.78c-1.29-1.43-3.03-2.19-4.64-2.04c-1.23,0.12-2.35,0.78-3.44,1.42L230.56,276.12z"></path></g></g><g id="computer"><g id="color_1_"><path class="st4" d="M274.87,160.6c-0.74,1.75-2.19,3.08-3.6,4.35c-4.63,4.14-9.39,8.14-14.28,11.99l200.97,0.09l2.77-16.26
			L274.87,160.6z"></path><path class="st4" d="M74.98,387.12L59.89,407.9h335.18l15.77-20.19C410.84,387.71,75.39,387.71,74.98,387.12z"></path></g><g id="line_2_"><path class="st0" d="M394.77,425.95H39.29c-0.19,0-0.36-0.11-0.45-0.27c-0.09-0.17-0.07-0.37,0.04-0.52l30.77-42.43
			c0.16-0.22,0.47-0.27,0.7-0.11c0.22,0.16,0.27,0.47,0.11,0.7l-30.19,41.64h354.25L424.97,383l35.21-221.75H274.74
			c-0.28,0-0.5-0.22-0.5-0.5s0.22-0.5,0.5-0.5h186.03c0.15,0,0.29,0.06,0.38,0.18c0.1,0.11,0.14,0.26,0.11,0.4l-35.32,222.45
			c-0.01,0.08-0.04,0.15-0.09,0.22l-30.68,42.25C395.08,425.87,394.93,425.95,394.77,425.95z"></path><path class="st0" d="M457.63,177.59H255.81c-0.28,0-0.5-0.22-0.5-0.5s0.22-0.5,0.5-0.5h201.82c0.28,0,0.5,0.22,0.5,0.5
			S457.9,177.59,457.63,177.59z"></path><path class="st0" d="M425.25,383.5H69.88c-0.28,0-0.5-0.22-0.5-0.5s0.22-0.5,0.5-0.5h355.37c0.28,0,0.5,0.22,0.5,0.5
			S425.52,383.5,425.25,383.5z"></path><path class="st0" d="M395.07,408.4H59.89c-0.19,0-0.36-0.11-0.45-0.27c-0.09-0.17-0.07-0.37,0.04-0.52l15.09-20.78
			c0.1-0.13,0.25-0.19,0.41-0.21c0.04,0,0.09,0.01,0.13,0.02c5.06,0.57,332.42,0.57,335.73,0.57c0.19,0,0.37,0.11,0.45,0.28
			c0.08,0.17,0.06,0.38-0.06,0.53l-15.77,20.19C395.36,408.33,395.22,408.4,395.07,408.4z M60.87,407.4h333.95l14.99-19.19
			c-9.86,0-88.76,0-166.75-0.07c-142.34-0.12-164.26-0.31-167.78-0.58L60.87,407.4z"></path><path class="st0" d="M398.74,395.46H74.59c-0.28,0-0.5-0.22-0.5-0.5s0.22-0.5,0.5-0.5h324.15c0.28,0,0.5,0.22,0.5,0.5
			S399.01,395.46,398.74,395.46z"></path><path class="st0" d="M391,402.01H69.43c-0.28,0-0.5-0.22-0.5-0.5s0.22-0.5,0.5-0.5H391c0.28,0,0.5,0.22,0.5,0.5
			S391.27,402.01,391,402.01z"></path><path class="st0" d="M80.34,405.78c-0.09,0-0.19-0.03-0.27-0.08c-0.23-0.15-0.3-0.46-0.15-0.69l10.12-15.87
			c0.15-0.23,0.46-0.3,0.69-0.15c0.23,0.15,0.3,0.46,0.15,0.69l-10.12,15.87C80.66,405.7,80.5,405.78,80.34,405.78z"></path><path class="st0" d="M368.38,405.78c-0.1,0-0.21-0.03-0.29-0.1c-0.22-0.16-0.27-0.48-0.11-0.7l11.31-15.48
			c0.16-0.22,0.48-0.27,0.7-0.11c0.22,0.16,0.27,0.48,0.11,0.7l-11.31,15.48C368.68,405.71,368.53,405.78,368.38,405.78z"></path><path class="st0" d="M340.09,405.74c-0.09,0-0.18-0.03-0.27-0.08c-0.23-0.15-0.3-0.46-0.15-0.69l9.91-15.61
			c0.15-0.23,0.46-0.3,0.69-0.15c0.23,0.15,0.3,0.46,0.15,0.69l-9.91,15.61C340.41,405.66,340.25,405.74,340.09,405.74z"></path><path class="st0" d="M306.83,406.39c-0.09,0-0.18-0.02-0.26-0.07c-0.24-0.14-0.31-0.45-0.16-0.69l9.81-15.98
			c0.14-0.24,0.45-0.31,0.69-0.16c0.24,0.14,0.31,0.45,0.16,0.69l-9.81,15.98C307.16,406.3,306.99,406.39,306.83,406.39z"></path><path class="st0" d="M271.16,406.53c-0.11,0-0.21-0.03-0.3-0.1c-0.22-0.17-0.26-0.48-0.1-0.7l11.98-15.92
			c0.17-0.22,0.48-0.27,0.7-0.1c0.22,0.17,0.26,0.48,0.1,0.7l-11.98,15.92C271.46,406.46,271.31,406.53,271.16,406.53z"></path><path class="st0" d="M239.02,406.1c-0.11,0-0.22-0.04-0.31-0.11c-0.22-0.17-0.26-0.48-0.09-0.7l12.13-15.49
			c0.17-0.22,0.49-0.25,0.7-0.08c0.22,0.17,0.25,0.48,0.08,0.7l-12.13,15.49C239.31,406.03,239.16,406.1,239.02,406.1z"></path><path class="st0" d="M208.68,406.71c-0.1,0-0.19-0.03-0.28-0.09c-0.23-0.16-0.29-0.47-0.13-0.69l11.34-16.67
			c0.16-0.23,0.47-0.29,0.69-0.13c0.23,0.16,0.29,0.47,0.13,0.69l-11.34,16.67C208.99,406.63,208.84,406.71,208.68,406.71z"></path><path class="st0" d="M182.05,405.88c-0.07,0-0.15-0.02-0.21-0.05c-0.25-0.12-0.35-0.42-0.24-0.67l7.66-16.07
			c0.12-0.25,0.42-0.36,0.67-0.24c0.25,0.12,0.35,0.42,0.24,0.67l-7.66,16.07C182.41,405.77,182.23,405.88,182.05,405.88z"></path><path class="st0" d="M156.54,406.14c-0.05,0-0.1-0.01-0.15-0.02c-0.26-0.08-0.41-0.37-0.32-0.63l5.36-16.71
			c0.08-0.26,0.37-0.41,0.63-0.32c0.26,0.08,0.41,0.37,0.32,0.63l-5.36,16.71C156.94,406,156.75,406.14,156.54,406.14z"></path><path class="st0" d="M133.07,406.52c-0.05,0-0.11-0.01-0.16-0.03c-0.26-0.09-0.4-0.37-0.31-0.63l5.74-16.97
			c0.09-0.26,0.37-0.4,0.63-0.31c0.26,0.09,0.4,0.37,0.31,0.63l-5.74,16.97C133.47,406.39,133.27,406.52,133.07,406.52z"></path><path class="st0" d="M105.01,404.86c-0.06,0-0.12-0.01-0.18-0.03c-0.26-0.1-0.39-0.39-0.29-0.65l5.74-14.8
			c0.1-0.26,0.39-0.39,0.65-0.29c0.26,0.1,0.39,0.39,0.29,0.65l-5.74,14.8C105.4,404.74,105.21,404.86,105.01,404.86z"></path></g></g></svg>